<?xml version="1.0" encoding="UTF-8"?>
<svg width="330px" height="198px" viewBox="0 0 330 198" version="1.1" xmlns="http://www.w3.org/2000/svg" xmlns:xlink="http://www.w3.org/1999/xlink">
    <!-- Generator: Sketch 50.2 (55047) - http://www.bohemiancoding.com/sketch -->
    <title>Group</title>
    <desc>Created with Sketch.</desc>
    <defs></defs>
    <g id="Page-1" stroke="none" stroke-width="1" fill="none" fill-rule="evenodd">
        <g id="Group">
            <path d="M45.9,90.682 L60.36,90.682 L60.36,37.563 L45.9,37.563 L45.9,90.682 Z M38,98.254 L68.255,98.254 L68.255,30 L38,30 L38,98.254 Z" id="Fill-1" fill="#2C3C42"></path>
            <polygon id="Fill-2" fill="#2C3C42" points="0 113.541 128.601 113.541 128.601 106 0 106"></polygon>
            <path d="M7.871,142.935 L45.043,142.935 L45.043,128.539 L7.871,128.539 L7.871,142.935 Z M0,159.011 L7.871,159.011 L7.871,150.467 L52.916,150.467 L52.916,121 L0,121 L0,159.011 Z" id="Fill-3" fill="#2C3C42"></path>
            <polyline id="Fill-4" fill="#2C3C42" points="83.905 52.706 98.364 37.563 98.364 98.253 106.259 98.253 106.259 52.703 120.716 37.569 120.716 98.253 128.619 98.253 128.619 30 117.522 30 106.259 41.756 106.259 30 95.167 30 76 49.839 76 98.253 83.905 98.253 83.905 52.706"></polyline>
            <path d="M68.875,142.935 L90.807,142.935 L90.807,128.539 L68.875,128.539 L68.875,142.935 Z M99.019,142.935 L121.118,142.935 L121.118,128.539 L99.019,128.539 L99.019,142.935 Z M61,150.467 L90.808,150.467 L90.808,159.011 L99.019,159.011 L99.019,150.467 L128.988,150.467 L128.988,121 L61,121 L61,150.467 Z" id="Fill-5" fill="#2C3C42"></path>
            <path d="M7.903,52.706 L22.357,37.569 L22.357,90.683 L7.903,90.683 L7.903,52.706 Z M22.357,98.253 L30.258,98.253 L30.258,30 L19.165,30 L0,49.839 L0,98.253 L22.357,98.253 Z" id="Fill-6" fill="#2C3C42"></path>
            <polygon id="Fill-7" fill="#2C3C42" points="0 113.541 128.601 113.541 128.601 106 0 106"></polygon>
            <path d="M7.871,142.935 L45.043,142.935 L45.043,128.539 L7.871,128.539 L7.871,142.935 Z M0,159.011 L7.871,159.011 L7.871,150.467 L52.916,150.467 L52.916,121 L0,121 L0,159.011 Z" id="Fill-8" fill="#2C3C42"></path>
            <path d="M68.875,142.935 L90.807,142.935 L90.807,128.539 L68.875,128.539 L68.875,142.935 Z M99.019,142.935 L121.118,142.935 L121.118,128.539 L99.019,128.539 L99.019,142.935 Z M61,150.467 L90.808,150.467 L90.808,159.011 L99.019,159.011 L99.019,150.467 L128.988,150.467 L128.988,121 L61,121 L61,150.467 Z" id="Fill-9" fill="#2C3C42"></path>
            <path d="M45.9,90.682 L60.36,90.682 L60.36,37.563 L45.9,37.563 L45.9,90.682 Z M38,98.254 L68.255,98.254 L68.255,30 L38,30 L38,98.254 Z" id="Fill-10" fill="#2C3C42"></path>
            <polyline id="Fill-11" fill="#2C3C42" points="83.905 52.706 98.364 37.563 98.364 98.253 106.259 98.253 106.259 52.703 120.716 37.569 120.716 98.253 128.619 98.253 128.619 30 117.522 30 106.259 41.756 106.259 30 95.167 30 76 49.839 76 98.253 83.905 98.253 83.905 52.706"></polyline>
            <path d="M7.903,52.706 L22.357,37.569 L22.357,90.683 L7.903,90.683 L7.903,52.706 Z M22.357,98.253 L30.258,98.253 L30.258,30 L19.165,30 L0,49.839 L0,98.253 L22.357,98.253 Z" id="Fill-12" fill="#2C3C42"></path>
            <polygon id="Fill-13" fill="#2C3C42" points="150 198 329.999 198 329.999 0 150 0"></polygon>
            <path d="M221.901,89.681 L236.36,89.681 L236.36,36.562 L221.901,36.562 L221.901,89.681 Z M214,97.254 L244.256,97.254 L244.256,29 L214,29 L214,97.254 Z" id="Fill-14" fill="#FFFFFE"></path>
            <polygon id="Fill-15" fill="#FFFFFE" points="176 112.541 304.602 112.541 304.602 105 176 105"></polygon>
            <path d="M183.87,141.936 L221.043,141.936 L221.043,127.539 L183.87,127.539 L183.87,141.936 Z M176,158.012 L183.87,158.012 L183.87,149.468 L228.915,149.468 L228.915,120 L176,120 L176,158.012 Z" id="Fill-16" fill="#FFFFFE"></path>
            <polyline id="Fill-17" fill="#FFFFFE" points="259.906 51.705 274.365 36.563 274.365 97.253 282.259 97.253 282.259 51.702 296.716 36.569 296.716 97.253 304.62 97.253 304.62 29 293.523 29 282.259 40.756 282.259 29 271.167 29 252 48.839 252 97.253 259.906 97.253 259.906 51.705"></polyline>
            <path d="M244.875,141.936 L266.808,141.936 L266.808,127.539 L244.875,127.539 L244.875,141.936 Z M275.02,141.936 L297.119,141.936 L297.119,127.539 L275.02,127.539 L275.02,141.936 Z M237,149.468 L266.809,149.468 L266.809,158.012 L275.02,158.012 L275.02,149.468 L304.989,149.468 L304.989,120 L237,120 L237,149.468 Z" id="Fill-18" fill="#FFFFFE"></path>
            <path d="M183.902,51.705 L198.356,36.569 L198.356,89.682 L183.902,89.682 L183.902,51.705 Z M198.356,97.253 L206.258,97.253 L206.258,29 L195.164,29 L176,48.839 L176,97.253 L198.356,97.253 Z" id="Fill-19" fill="#FFFFFE"></path>
            <polygon id="Fill-20" fill="#FFFFFE" points="176 112.541 304.602 112.541 304.602 105 176 105"></polygon>
            <path d="M183.87,141.936 L221.043,141.936 L221.043,127.539 L183.87,127.539 L183.87,141.936 Z M176,158.012 L183.87,158.012 L183.87,149.468 L228.915,149.468 L228.915,120 L176,120 L176,158.012 Z" id="Fill-21" fill="#FFFFFE"></path>
            <path d="M244.875,141.936 L266.808,141.936 L266.808,127.539 L244.875,127.539 L244.875,141.936 Z M275.02,141.936 L297.119,141.936 L297.119,127.539 L275.02,127.539 L275.02,141.936 Z M237,149.468 L266.809,149.468 L266.809,158.012 L275.02,158.012 L275.02,149.468 L304.989,149.468 L304.989,120 L237,120 L237,149.468 Z" id="Fill-22" fill="#FFFFFE"></path>
            <path d="M221.901,89.681 L236.36,89.681 L236.36,36.562 L221.901,36.562 L221.901,89.681 Z M214,97.254 L244.256,97.254 L244.256,29 L214,29 L214,97.254 Z" id="Fill-23" fill="#FFFFFE"></path>
            <polyline id="Fill-24" fill="#FFFFFE" points="259.906 51.705 274.365 36.563 274.365 97.253 282.259 97.253 282.259 51.702 296.716 36.569 296.716 97.253 304.62 97.253 304.62 29 293.523 29 282.259 40.756 282.259 29 271.167 29 252 48.839 252 97.253 259.906 97.253 259.906 51.705"></polyline>
            <path d="M183.902,51.705 L198.356,36.569 L198.356,89.682 L183.902,89.682 L183.902,51.705 Z M198.356,97.253 L206.258,97.253 L206.258,29 L195.164,29 L176,48.839 L176,97.253 L198.356,97.253 Z" id="Fill-25" fill="#FFFFFE"></path>
        </g>
    </g>
</svg>