<svg viewBox="0 0 192 86" fill="none" xmlns="http://www.w3.org/2000/svg"><path opacity=".1" stroke="#9FBBB8" d="M.5 22.5h63v63H.5z"/><path opacity=".1" stroke="#9FBBB8" d="M22.5.5h63v63h-63z"/><path fill-rule="evenodd" clip-rule="evenodd" d="M25.72 71V29.4h-7.6V15.64h23.44V71H25.72zm1-42.6V70h13.84V16.64H19.12V28.4h7.6zM87.37 15.64V29.4h-18.63l-.605 3.736a25.25 25.25 0 0 1 3.115-.216c6.178 0 11.151 1.827 14.793 5.578 3.46 3.465 5.167 7.942 5.167 13.342 0 5.618-1.79 10.33-5.402 14.056l-.002.001C81.673 70.143 75.837 72.2 68.45 72.2c-7.092 0-13.284-1.639-18.534-4.954l-.558-.353 2.48-15.45 1.37 1.262c1.957 1.803 4.002 3.18 6.134 4.144l.013.006c2.489 1.168 5.01 1.745 7.575 1.745 2.78 0 4.808-.811 6.229-2.322 1.205-1.3 1.81-2.865 1.81-4.758 0-2.07-.737-3.711-2.218-5.007l-.007-.007c-1.7-1.517-4.6-2.386-8.934-2.386-3.43 0-6.555.715-9.393 2.134l-1.746.873 5.087-31.487H87.37zm-2.04 23.56c-3.413-3.52-8.107-5.28-14.08-5.28-.963 0-2.057.082-3.282.246-.336.045-.682.097-1.038.154l.96-5.92h18.48V16.64h-27.76l-4.64 28.72c.36-.18.726-.35 1.095-.508 2.688-1.155 5.603-1.732 8.745-1.732 4.427 0 7.627.88 9.6 2.64 1.706 1.493 2.56 3.413 2.56 5.76 0 2.133-.694 3.947-2.08 5.44-1.653 1.76-3.974 2.64-6.96 2.64-2.72 0-5.387-.613-8-1.84-1.916-.867-3.754-2.045-5.513-3.536a28.478 28.478 0 0 1-.887-.784l-2.08 12.96c5.067 3.2 11.067 4.8 18 4.8 7.2 0 12.746-2 16.64-6 3.413-3.52 5.12-7.973 5.12-13.36 0-5.173-1.627-9.387-4.88-12.64zm37.781-8.935l-.007-.006c-1.05-.96-2.225-1.419-3.565-1.419-1.341 0-2.516.46-3.566 1.419l-.014.012-.014.012c-1.178.997-2.223 2.761-3.051 5.451l-.001.005c-.826 2.632-1.234 5.198-1.234 7.701 0 2.287.38 4.804 1.159 7.557.824 2.674 1.896 4.505 3.145 5.616l.01.008c1.05.96 2.225 1.419 3.566 1.419 1.34 0 2.515-.46 3.565-1.419l.006-.005.006-.005c1.195-1.057 2.242-2.836 3.068-5.468.828-2.691 1.235-5.231 1.235-7.623 0-2.386-.432-4.949-1.313-7.695l-.002-.008-.003-.008c-.831-2.754-1.854-4.545-2.983-5.538l-.007-.006zm4.028 21.175c-.854 2.72-1.974 4.693-3.36 5.92-1.227 1.12-2.64 1.68-4.24 1.68s-3.014-.56-4.24-1.68c-1.44-1.28-2.587-3.307-3.44-6.08-.8-2.827-1.2-5.44-1.2-7.84 0-2.613.426-5.28 1.28-8 .853-2.773 1.973-4.747 3.36-5.92 1.226-1.12 2.64-1.68 4.24-1.68s3.013.56 4.24 1.68c1.333 1.173 2.426 3.173 3.28 6 .906 2.827 1.36 5.493 1.36 8 0 2.507-.427 5.147-1.28 7.92zm7.82 14.394c-4.291 4.234-9.448 6.366-15.42 6.366-5.973 0-11.131-2.132-15.422-6.367-5.518-5.408-8.218-12.946-8.218-22.473 0-9.578 2.699-17.144 8.218-22.553 4.292-4.235 9.449-6.367 15.422-6.367 5.972 0 11.13 2.132 15.421 6.367 5.519 5.409 8.219 12.975 8.219 22.553 0 9.527-2.701 17.066-8.22 22.474zm-30.14-44.314c-5.28 5.173-7.92 12.453-7.92 21.84 0 9.333 2.64 16.587 7.92 21.76 4.106 4.053 9.013 6.08 14.72 6.08 5.706 0 10.613-2.027 14.72-6.08 5.28-5.173 7.92-12.427 7.92-21.76 0-9.387-2.64-16.667-7.92-21.84-4.107-4.053-9.014-6.08-14.72-6.08-5.707 0-10.614 2.027-14.72 6.08zm67.061 8.745l-.007-.006c-1.05-.96-2.225-1.419-3.566-1.419-1.34 0-2.515.46-3.565 1.419l-.014.012-.015.012c-1.177.997-2.222 2.761-3.05 5.451l-.001.005c-.826 2.632-1.235 5.198-1.235 7.701 0 2.287.381 4.804 1.159 7.557.825 2.674 1.897 4.505 3.146 5.616l.01.008c1.05.96 2.225 1.419 3.565 1.419 1.341 0 2.516-.46 3.566-1.419l.006-.005.006-.005c1.195-1.057 2.242-2.836 3.067-5.468.828-2.691 1.235-5.231 1.235-7.623 0-2.386-.431-4.949-1.312-7.695l-.002-.008-.003-.008c-.831-2.754-1.855-4.545-2.983-5.538l-.007-.006zm4.027 21.175c-.853 2.72-1.973 4.693-3.36 5.92-1.226 1.12-2.64 1.68-4.24 1.68s-3.013-.56-4.24-1.68c-1.44-1.28-2.586-3.307-3.44-6.08-.8-2.827-1.2-5.44-1.2-7.84 0-2.613.427-5.28 1.28-8 .854-2.773 1.974-4.747 3.36-5.92 1.227-1.12 2.64-1.68 4.24-1.68s3.014.56 4.24 1.68c1.334 1.173 2.427 3.173 3.28 6 .907 2.827 1.36 5.493 1.36 8 0 2.507-.426 5.147-1.28 7.92zm7.821 14.394c-4.291 4.234-9.449 6.366-15.421 6.366-5.972 0-11.13-2.132-15.421-6.367-5.518-5.408-8.219-12.946-8.219-22.473 0-9.579 2.7-17.145 8.22-22.554 4.291-4.234 9.448-6.366 15.42-6.366 5.973 0 11.13 2.132 15.422 6.367 5.519 5.409 8.218 12.975 8.218 22.553 0 9.527-2.7 17.066-8.219 22.474zm-.701-44.314c-4.106-4.053-9.013-6.08-14.72-6.08-5.706 0-10.613 2.027-14.72 6.08-5.28 5.173-7.92 12.453-7.92 21.84 0 9.333 2.64 16.587 7.92 21.76 4.107 4.053 9.014 6.08 14.72 6.08 5.707 0 10.614-2.027 14.72-6.08 5.28-5.173 7.92-12.427 7.92-21.76 0-9.387-2.64-16.667-7.92-21.84z" fill="#1E5654"/></svg>