<svg viewBox="0 0 105 86" fill="none" xmlns="http://www.w3.org/2000/svg"><path opacity=".1" stroke="#9FBBB8" d="M.5 22.5h63v63H.5z"/><path opacity=".1" stroke="#9FBBB8" d="M22.5.5h63v63h-63z"/><path fill-rule="evenodd" clip-rule="evenodd" d="M48.52 15.64v32.64H55v12.64h-6.48V71h-14.8V60.92H7.88V50.764L28.873 15.64H48.52zm-13.8 44.28V70h12.8V59.92H54V49.28h-6.48V16.64H29.44L8.88 51.04v8.88h25.84zm0-10.64H22.16l12.56-21.76v21.76zm-1-18.027L23.892 48.28h9.828V31.253zm50.621-.988l-.007-.007c-1.05-.958-2.225-1.418-3.565-1.418-1.34 0-2.516.46-3.566 1.418l-.014.013-.014.012c-1.178.997-2.223 2.761-3.05 5.451l-.002.005c-.826 2.632-1.234 5.198-1.234 7.7 0 2.288.38 4.805 1.159 7.557.824 2.675 1.896 4.506 3.145 5.616l.01.01c1.05.958 2.225 1.418 3.566 1.418 1.34 0 2.515-.46 3.565-1.419l.006-.005.006-.005c1.195-1.057 2.242-2.837 3.068-5.468.828-2.691 1.235-5.231 1.235-7.623 0-2.386-.432-4.949-1.313-7.695l-.002-.008-.003-.008c-.831-2.754-1.854-4.545-2.983-5.538l-.007-.006zM88.37 51.44c-.854 2.72-1.974 4.693-3.36 5.92-1.227 1.12-2.64 1.68-4.24 1.68s-3.014-.56-4.24-1.68c-1.44-1.28-2.587-3.307-3.44-6.08-.8-2.827-1.2-5.44-1.2-7.84 0-2.613.426-5.28 1.28-8 .853-2.773 1.973-4.747 3.36-5.92 1.226-1.12 2.64-1.68 4.24-1.68s3.013.56 4.24 1.68c1.333 1.173 2.426 3.173 3.28 6 .906 2.827 1.36 5.493 1.36 8 0 2.507-.427 5.147-1.28 7.92zm7.821 14.393C91.9 70.068 86.741 72.2 80.77 72.2c-5.973 0-11.13-2.132-15.422-6.367-5.518-5.408-8.218-12.947-8.218-22.473 0-9.578 2.699-17.144 8.218-22.553 4.291-4.235 9.45-6.367 15.422-6.367 5.972 0 11.13 2.132 15.42 6.367 5.52 5.409 8.22 12.975 8.22 22.553 0 9.526-2.701 17.065-8.219 22.473zM95.49 21.52c-4.107-4.053-9.014-6.08-14.72-6.08-5.707 0-10.614 2.027-14.72 6.08-5.28 5.173-7.92 12.453-7.92 21.84 0 9.333 2.64 16.587 7.92 21.76 4.106 4.053 9.013 6.08 14.72 6.08 5.706 0 10.613-2.027 14.72-6.08 5.28-5.173 7.92-12.427 7.92-21.76 0-9.387-2.64-16.667-7.92-21.84z" fill="#1E5654"/></svg>