<svg viewBox="0 0 154 86" fill="none" xmlns="http://www.w3.org/2000/svg"><path opacity=".1" stroke="#9FBBB8" d="M.5 22.5h63v63H.5z"/><path opacity=".1" stroke="#9FBBB8" d="M22.5.5h63v63h-63z"/><path fill-rule="evenodd" clip-rule="evenodd" d="M48.52 15.64v32.64H55v12.64h-6.48V71h-14.8V60.92H7.88V50.764L28.873 15.64H48.52zm-13.8 44.28V70h12.8V59.92H54V49.28h-6.48V16.64H29.44L8.88 51.04v8.88h25.84zm0-10.64H22.16l12.56-21.76v21.76zm-1-18.027L23.892 48.28h9.828V31.253zM97.369 15.64V29.4h-18.63l-.605 3.736c1.14-.143 2.18-.216 3.115-.216 6.177 0 11.151 1.827 14.792 5.578 3.461 3.465 5.168 7.942 5.168 13.342 0 5.618-1.79 10.33-5.403 14.056v.001c-4.133 4.246-9.97 6.303-17.357 6.303-7.092 0-13.284-1.639-18.534-4.954l-.558-.353 2.48-15.45 1.37 1.262c1.957 1.803 4.002 3.18 6.134 4.144l.013.006c2.488 1.168 5.01 1.745 7.575 1.745 2.779 0 4.808-.811 6.229-2.322 1.205-1.3 1.81-2.865 1.81-4.758 0-2.07-.737-3.711-2.218-5.007l-.007-.007c-1.701-1.517-4.6-2.386-8.934-2.386-3.43 0-6.555.715-9.393 2.134l-1.746.873 5.087-31.487H97.37zm-2.04 23.56c-3.414-3.52-8.107-5.28-14.08-5.28-.963 0-2.057.082-3.282.246a39.17 39.17 0 0 0-1.038.154l.96-5.92h18.48V16.64h-27.76l-4.64 28.72c.36-.18.725-.35 1.095-.508 2.688-1.155 5.603-1.732 8.745-1.732 4.426 0 7.626.88 9.6 2.64 1.706 1.493 2.56 3.413 2.56 5.76 0 2.133-.694 3.947-2.08 5.44-1.654 1.76-3.974 2.64-6.96 2.64-2.72 0-5.387-.613-8-1.84-1.916-.867-3.754-2.045-5.513-3.536a28.616 28.616 0 0 1-.887-.784l-2.08 12.96c5.066 3.2 11.066 4.8 18 4.8 7.2 0 12.746-2 16.64-6 3.413-3.52 5.12-7.973 5.12-13.36 0-5.173-1.627-9.387-4.88-12.64zM126.4 15.64h18.397l-14.251 17.027a17.861 17.861 0 0 1 4.35-.547c4.917 0 9.195 1.82 12.787 5.413 3.563 3.563 5.333 8.064 5.333 13.427 0 5.843-1.93 10.744-5.813 14.627-4.437 4.438-10.391 6.613-17.747 6.613-7.668 0-13.791-2.225-18.236-6.782l-.002-.002c-3.446-3.559-5.162-7.974-5.162-13.176 0-6.582 2.762-13.43 8.123-20.523l.001-.002 12.22-16.075zm2.993 18.404c-.644.215-1.289.467-1.937.756l15.2-18.16h-15.76l-11.92 15.68c-5.28 6.987-7.92 13.627-7.92 19.92 0 4.96 1.627 9.12 4.88 12.48 4.214 4.32 10.054 6.48 17.52 6.48 7.147 0 12.827-2.107 17.04-6.32 3.68-3.68 5.52-8.32 5.52-13.92 0-5.12-1.68-9.36-5.04-12.72-3.413-3.413-7.44-5.12-12.08-5.12-1.819 0-3.654.308-5.503.924zm5.288 12.754c-1.518-1.47-3.321-2.198-5.465-2.198-2.043 0-3.804.68-5.327 2.06-1.584 1.44-2.313 3.024-2.313 4.78 0 2.16.686 3.935 2.044 5.39 1.577 1.622 3.425 2.41 5.596 2.41 2.203 0 3.998-.731 5.453-2.187 1.461-1.46 2.187-3.23 2.187-5.373 0-1.84-.7-3.454-2.175-4.882zm-11.465-.878c1.707-1.547 3.707-2.32 6-2.32 2.4 0 4.454.827 6.16 2.48 1.654 1.6 2.48 3.467 2.48 5.6 0 2.4-.826 4.427-2.48 6.08-1.653 1.653-3.706 2.48-6.16 2.48-2.453 0-4.56-.907-6.32-2.72-1.546-1.653-2.32-3.68-2.32-6.08 0-2.08.88-3.92 2.64-5.52z" fill="#1E5654"/></svg>