<svg viewBox="0 0 154 86" fill="none" xmlns="http://www.w3.org/2000/svg"><path opacity=".1" stroke="#9FBBB8" d="M.5 22.5h63v63H.5z"/><path opacity=".1" stroke="#9FBBB8" d="M22.5.5h63v63h-63z"/><path fill-rule="evenodd" clip-rule="evenodd" d="M48.6 15.64V29.4H29.971l-.606 3.736a25.25 25.25 0 0 1 3.115-.216c6.178 0 11.152 1.827 14.793 5.578 3.46 3.464 5.167 7.942 5.167 13.342 0 5.618-1.79 10.33-5.402 14.056l-.001.001c-4.132 4.246-9.97 6.303-17.357 6.303-7.092 0-13.284-1.639-18.534-4.954l-.558-.353 2.48-15.45 1.37 1.262c1.957 1.803 4.002 3.18 6.134 4.144l.013.006c2.489 1.168 5.01 1.745 7.575 1.745 2.78 0 4.808-.81 6.23-2.322 1.204-1.299 1.81-2.865 1.81-4.758 0-2.07-.737-3.711-2.218-5.007l-.008-.007c-1.7-1.517-4.6-2.386-8.934-2.386-3.43 0-6.555.715-9.393 2.134l-1.745.873 5.087-31.487H48.6zM46.56 39.2c-3.413-3.52-8.107-5.28-14.08-5.28-.963 0-2.057.082-3.282.246-.336.045-.682.097-1.038.154l.96-5.92H47.6V16.64H19.84L15.2 45.36c.36-.18.726-.35 1.095-.508 2.688-1.155 5.603-1.732 8.745-1.732 4.427 0 7.627.88 9.6 2.64 1.707 1.493 2.56 3.413 2.56 5.76 0 2.133-.693 3.947-2.08 5.44-1.653 1.76-3.973 2.64-6.96 2.64-2.72 0-5.387-.613-8-1.84-1.916-.867-3.753-2.045-5.513-3.536a28.5 28.5 0 0 1-.887-.784L11.68 66.4c5.067 3.2 11.067 4.8 18 4.8 7.2 0 12.747-2 16.64-6 3.413-3.52 5.12-7.973 5.12-13.36 0-5.173-1.627-9.387-4.88-12.64zm31.073-23.56H96.03L81.778 32.667a17.866 17.866 0 0 1 4.35-.547c4.918 0 9.195 1.82 12.788 5.413 3.563 3.563 5.333 8.064 5.333 13.427 0 5.843-1.93 10.744-5.813 14.627-4.438 4.438-10.392 6.613-17.747 6.613-7.668 0-13.792-2.225-18.236-6.782l-.003-.002c-3.445-3.559-5.161-7.974-5.161-13.176 0-6.582 2.761-13.43 8.122-20.523l.002-.002 12.22-16.075zm2.992 18.404c-.643.215-1.289.467-1.936.756l15.2-18.16h-15.76l-11.92 15.68c-5.28 6.987-7.92 13.627-7.92 19.92 0 4.96 1.627 9.12 4.88 12.48 4.213 4.32 10.053 6.48 17.52 6.48 7.147 0 12.827-2.107 17.04-6.32 3.68-3.68 5.52-8.32 5.52-13.92 0-5.12-1.68-9.36-5.04-12.72-3.413-3.413-7.44-5.12-12.08-5.12-1.82 0-3.654.308-5.504.924zm5.288 12.754c-1.518-1.47-3.321-2.198-5.464-2.198-2.044 0-3.805.68-5.328 2.06-1.584 1.44-2.312 3.024-2.312 4.78 0 2.16.686 3.935 2.044 5.39 1.577 1.622 3.425 2.41 5.596 2.41 2.203 0 3.997-.731 5.453-2.187 1.46-1.46 2.187-3.23 2.187-5.373 0-1.84-.7-3.454-2.176-4.882zm-11.464-.878c1.707-1.547 3.707-2.32 6-2.32 2.4 0 4.453.827 6.16 2.48 1.653 1.6 2.48 3.467 2.48 5.6 0 2.4-.827 4.427-2.48 6.08-1.653 1.653-3.707 2.48-6.16 2.48-2.453 0-4.56-.907-6.32-2.72-1.547-1.653-2.32-3.68-2.32-6.08 0-2.08.88-3.92 2.64-5.52zM104.45 71l24.32-41.6h-21.497V15.64h46.485L122.053 71H104.45zm26.063-42.6L106.193 70h15.28l30.56-53.36h-43.76V28.4h22.24z" fill="#1E5654"/></svg>