<svg width="48" height="48" viewBox="0 0 48 48" fill="none" xmlns="http://www.w3.org/2000/svg">
<g clip-path="url(#clip0)">
<path d="M16.9851 6.67306C16.1631 5.01102 15.5151 3.69896 16.9451 1.55298C17.2511 1.09294 17.1251 0.472958 16.6671 0.166951C16.2131 -0.137086 15.5891 -0.0150214 15.2811 0.444926C13.2091 3.54896 14.3091 5.77304 15.1931 7.55911C16.0191 9.23118 16.6171 10.4392 15.2811 12.4452C14.9731 12.9052 15.0991 13.5252 15.5571 13.8312C15.7271 13.9452 15.9211 13.9992 16.1131 13.9992C16.4352 13.9992 16.7511 13.8432 16.9431 13.5532C18.9212 10.5892 17.8492 8.41713 16.9851 6.67306Z" fill="#CBC56C"/>
<path d="M24.9534 6.67306C24.1294 5.01102 23.4814 3.69896 24.9114 1.55298C25.2174 1.09294 25.0914 0.472958 24.6334 0.166951C24.1794 -0.137086 23.5534 -0.0150214 23.2474 0.444926C21.1773 3.55102 22.2773 5.77501 23.1593 7.56108C23.9854 9.23315 24.5833 10.4411 23.2474 12.4452C22.9414 12.9052 23.0674 13.5252 23.5253 13.8312C23.6953 13.9452 23.8873 13.9992 24.0793 13.9992C24.4014 13.9992 24.7173 13.8432 24.9114 13.5532C26.8894 10.5892 25.8174 8.41713 24.9534 6.67306Z" fill="#CBC56C"/>
<path d="M32.9197 6.67306C32.0957 5.01102 31.4477 3.69896 32.8777 1.55298C33.1837 1.09294 33.0577 0.472958 32.5997 0.166951C32.1457 -0.137086 31.5197 -0.0150214 31.2137 0.444926C29.1436 3.55102 30.2436 5.77501 31.1256 7.56108C31.9517 9.23315 32.5496 10.4411 31.2137 12.4452C30.9077 12.9052 31.0337 13.5252 31.4917 13.8312C31.6616 13.9452 31.8536 13.9992 32.0456 13.9992C32.3696 13.9992 32.6857 13.8432 32.8777 13.5532C34.8558 10.5892 33.7837 8.41713 32.9197 6.67306Z" fill="#CBC56C"/>
<path d="M41.0005 15.9991H6.99974C4.24165 15.9991 1.99966 18.2432 1.99966 20.9992V38.9996C1.99966 41.7556 4.24174 43.9997 6.99974 43.9997H41.0005C43.7586 43.9997 46.0006 41.7556 46.0006 38.9996V20.9992C46.0006 18.2432 43.7585 15.9991 41.0005 15.9991ZM44.0006 38.9997C44.0006 40.6538 42.6546 41.9998 41.0005 41.9998H6.99974C5.34567 41.9998 3.99968 40.6538 3.99968 38.9997V20.9993C3.99968 19.3452 5.34567 17.9993 6.99974 17.9993H41.0005C42.6546 17.9993 44.0006 19.3452 44.0006 20.9993V38.9997Z" fill="#CBC56C"/>
<path d="M8.99978 19.9995C8.44777 19.9995 7.99973 20.4476 7.99973 20.9996V39C7.99973 39.552 8.44777 40 8.99978 40C9.55179 40 9.99983 39.552 9.99983 39V20.9996C9.99983 20.4476 9.55179 19.9995 8.99978 19.9995Z" fill="#CBC56C"/>
<path d="M15 19.9995C14.448 19.9995 13.9999 20.4476 13.9999 20.9996V39C13.9999 39.552 14.448 40 15 40C15.552 40 16 39.552 16 39V20.9996C16 20.4476 15.552 19.9995 15 19.9995Z" fill="#CBC56C"/>
<path d="M21.0002 19.9995C20.4482 19.9995 20.0002 20.4476 20.0002 20.9996V39C20.0002 39.552 20.4482 40 21.0002 40C21.5522 40 22.0003 39.552 22.0003 39V20.9996C22.0003 20.4476 21.5522 19.9995 21.0002 19.9995Z" fill="#CBC56C"/>
<path d="M27.0004 19.9995C26.4484 19.9995 26.0004 20.4476 26.0004 20.9996V39C26.0004 39.552 26.4484 40 27.0004 40C27.5524 40 28.0005 39.552 28.0005 39V20.9996C28.0005 20.4476 27.5524 19.9995 27.0004 19.9995Z" fill="#CBC56C"/>
<path d="M33.0006 19.9995C32.4486 19.9995 32.0006 20.4476 32.0006 20.9996V39C32.0006 39.552 32.4486 40 33.0006 40C33.5526 40 34.0007 39.552 34.0007 39V20.9996C34.0007 20.4476 33.5526 19.9995 33.0006 19.9995Z" fill="#CBC56C"/>
<path d="M39.0008 19.9995C38.4488 19.9995 38.0008 20.4476 38.0008 20.9996V39C38.0008 39.552 38.4488 40 39.0008 40C39.5529 40 40.0009 39.552 40.0009 39V20.9996C40.0009 20.4476 39.5529 19.9995 39.0008 19.9995Z" fill="#CBC56C"/>
<path d="M11.0005 41.9998C10.4485 41.9998 10.0005 42.4478 10.0005 42.9998V46.9999C10.0005 47.5519 10.4485 48 11.0005 48C11.5525 48 12.0006 47.5519 12.0006 46.9999V42.9998C12.0005 42.4477 11.5525 41.9998 11.0005 41.9998Z" fill="#CBC56C"/>
<path d="M37.0003 41.9998C36.4483 41.9998 36.0002 42.4478 36.0002 42.9998V46.9999C36.0002 47.5519 36.4483 48 37.0003 48C37.5523 48 38.0003 47.5519 38.0003 46.9999V42.9998C38.0003 42.4477 37.5523 41.9998 37.0003 41.9998Z" fill="#CBC56C"/>
</g>
<defs>
<clipPath id="clip0">
<rect width="48" height="48" fill="white"/>
</clipPath>
</defs>
</svg>
