<svg width="63" height="50" viewBox="0 0 63 50" fill="none" xmlns="http://www.w3.org/2000/svg">
<path d="M0 0V49.961H10.7231V0H0ZM2.24505 47.773V2.19369H8.47803V47.773H2.24505Z" fill="#CBC56C"/>
<path d="M26.4563 0.128418V49.8827H37.1794V0.128418H26.4563ZM28.7013 47.7004V2.29914H34.9343V47.666L28.7013 47.7004Z" fill="#CBC56C"/>
<path d="M44.6771 4.36897C44.6912 2.88245 45.265 1.45242 46.29 0.349121C47.2996 1.46083 47.8528 2.8949 47.8441 4.37774C47.8353 5.86058 47.2653 7.2884 46.2427 8.38883C45.2334 7.27962 44.6765 5.84978 44.6771 4.36897Z" fill="#CBC56C"/>
<path d="M24.6545 33.8462L9.21686 48.622L10.6348 50.0002L24.6545 36.4189V33.8462Z" fill="#CBC56C"/>
<path d="M57.1546 11.1896L48.8597 13.257L62.4777 0.100586H59.6359L38.7983 20.2228V22.9678L46.402 15.6287L58.5902 12.5966L57.1546 11.1896Z" fill="#CBC56C"/>
</svg>
