<svg width="174" height="164" viewBox="0 0 174 164" fill="none" xmlns="http://www.w3.org/2000/svg">
<path d="M0 0V108.685H23.3271V0H0ZM4.8839 103.926V4.77217H18.4432V103.926H4.8839Z" fill="#CBC56C"/>
<path d="M57.5532 0.274902V108.511H80.8803V0.274902H57.5532ZM62.4371 103.763V4.9971H75.9964V103.689L62.4371 103.763Z" fill="#CBC56C"/>
<path d="M97.1909 9.49432C97.2216 6.26052 98.4698 3.14963 100.7 0.749512C102.896 3.16794 104.099 6.28761 104.08 9.51338C104.061 12.7392 102.821 15.8453 100.597 18.2391C98.4011 15.8262 97.1897 12.7157 97.1909 9.49432Z" fill="#CBC56C"/>
<path d="M53.6336 73.6187L20.0504 105.762L23.135 108.76L53.6336 79.2153V73.6187Z" fill="#CBC56C"/>
<path d="M124.335 24.3356L106.29 28.8329L135.915 0.212402H129.733L84.4022 43.9864V49.9579L100.943 33.9924L127.458 27.3963L124.335 24.3356Z" fill="#CBC56C"/>
<path d="M12.9979 143.296H9.77197V133.814L3.28152 143.296H0.19696V128.842H3.4229V138.324L9.96476 128.842H12.9979V143.296Z" fill="white"/>
<path d="M27.238 132.477C27.2509 133.207 27.0251 133.922 26.5932 134.52C26.1613 135.117 25.5455 135.565 24.8346 135.8C25.63 135.974 26.3404 136.407 26.8477 137.028C27.355 137.648 27.6288 138.419 27.6236 139.211C27.6236 141.709 25.4387 143.546 21.9685 143.546C20.7525 143.632 19.5317 143.46 18.391 143.041C17.2502 142.623 16.2168 141.968 15.3624 141.122L17.1103 138.924C17.7336 139.52 18.4729 139.989 19.285 140.305C20.0971 140.62 20.9657 140.775 21.84 140.76C23.2281 140.76 24.4105 140.135 24.4105 139.024C24.4105 137.912 23.1252 137.325 21.4673 137.325H19.6808V134.689H21.3516C23.0738 134.689 24.0121 134.114 24.0121 133.015C24.0121 131.915 23.0353 131.403 21.6087 131.403C20.8623 131.372 20.1179 131.498 19.426 131.772C18.734 132.046 18.1108 132.461 17.5987 132.99L15.8765 130.966C16.6385 130.172 17.5686 129.549 18.6027 129.139C19.6368 128.729 20.7501 128.543 21.8657 128.592C25.0531 128.592 27.238 130.229 27.238 132.477Z" fill="white"/>
<path d="M30.4756 128.842H33.9586L37.8143 134.951L41.6701 128.842H45.2045V143.296H41.9528V133.864L37.7629 140.036H37.8143L33.663 133.927V143.296H30.4756V128.842Z" fill="white"/>
<path d="M54.0091 128.742H57.0937L63.5198 143.296H60.1011L58.7388 140.048H52.3383L50.9759 143.296H47.6472L54.0091 128.742ZM57.4535 137.25L55.4743 132.565L53.5078 137.25H57.4535Z" fill="white"/>
<path d="M78.5059 143.296H75.28V133.814L68.7895 143.296H65.705V128.842H68.9309V138.324L75.4728 128.842H78.5059V143.296Z" fill="white"/>
<path d="M94.6729 128.842V143.296H91.4083V131.715H87.1157V132.802C87.1157 141.31 85.689 143.483 82.296 143.483C81.7169 143.477 81.14 143.414 80.5738 143.296L80.7923 140.673C80.959 140.688 81.1268 140.688 81.2935 140.673C83.0672 140.673 84.0568 139.586 84.0568 131.803V128.805L94.6729 128.842Z" fill="white"/>
<path d="M98.2231 128.842H101.488V133.752H104.649C108.094 133.752 110.086 135.613 110.086 138.449C110.086 141.285 107.927 143.296 104.444 143.296H98.2231V128.842ZM101.488 136.488V140.423H104.392C106.012 140.423 106.847 139.748 106.847 138.399C106.847 137.05 106.012 136.488 104.379 136.488H101.488Z" fill="white"/>
<path d="M111.987 136.063C112.019 134.554 112.51 133.088 113.399 131.852C114.289 130.615 115.536 129.662 116.982 129.115C118.429 128.568 120.011 128.45 121.526 128.778C123.041 129.105 124.423 129.862 125.495 130.953L123.542 133.127C123.052 132.61 122.455 132.199 121.791 131.921C121.126 131.644 120.409 131.505 119.686 131.515C118.52 131.619 117.436 132.142 116.647 132.982C115.857 133.822 115.42 134.919 115.42 136.057C115.42 137.194 115.857 138.291 116.647 139.131C117.436 139.972 118.52 140.495 119.686 140.598C120.412 140.583 121.128 140.426 121.791 140.137C122.453 139.847 123.049 139.43 123.542 138.911L125.624 141.072C124.555 142.19 123.169 142.974 121.642 143.324C120.114 143.675 118.514 143.576 117.044 143.04C115.575 142.505 114.302 141.557 113.388 140.317C112.474 139.076 111.959 137.6 111.91 136.075L111.987 136.063Z" fill="white"/>
<path d="M128.319 128.842H131.635V135.164L137.676 128.842H141.622L135.491 134.976L141.814 143.296H137.894L133.28 137.137L131.635 138.874V143.296H128.371L128.319 128.842Z" fill="white"/>
<path d="M156.636 143.296H153.41V133.814L146.907 143.296H143.835V128.842H147.061V138.324L153.603 128.842H156.636V143.296Z" fill="white"/>
<path d="M173.022 143.296H169.796V133.814L163.292 143.296H160.208V128.842H163.447V138.324L169.988 128.842H173.022V143.296Z" fill="white"/>
<path d="M3.8701 157.5H7.72581C7.74303 157.078 7.68654 156.655 7.55873 156.251C7.43633 155.872 7.23996 155.52 6.98038 155.214C6.70767 154.906 6.37018 154.659 5.99074 154.49C5.53072 154.305 5.03605 154.215 4.53843 154.227C4.20991 154.223 3.882 154.256 3.56164 154.327C3.26313 154.398 2.98018 154.521 2.72624 154.689C2.48136 154.848 2.27519 155.057 2.12219 155.302C1.95053 155.571 1.84092 155.874 1.80088 156.189H0.54134C0.541966 155.947 0.580978 155.707 0.657007 155.476C0.730953 155.224 0.843608 154.984 0.991171 154.764C1.1507 154.525 1.34072 154.307 1.55668 154.115C1.7988 153.905 2.0664 153.724 2.35353 153.578C2.6808 153.422 3.02594 153.304 3.38171 153.228C3.80265 153.131 4.23434 153.084 4.66695 153.09C5.06049 153.087 5.45304 153.129 5.83652 153.215C6.21289 153.283 6.57674 153.405 6.91611 153.578C7.26203 153.745 7.57867 153.964 7.85434 154.227C8.14927 154.499 8.3967 154.815 8.58692 155.164C8.79991 155.559 8.95973 155.979 9.06245 156.413C9.32727 157.54 9.32727 158.71 9.06245 159.836C8.92864 160.304 8.73431 160.753 8.4841 161.173C8.25426 161.527 7.97287 161.847 7.6487 162.122C7.34272 162.367 7.00583 162.573 6.64621 162.735C6.31388 162.886 5.96451 162.999 5.60518 163.072C5.27433 163.13 4.93886 163.159 4.60269 163.159C4.01402 163.169 3.429 163.067 2.88047 162.86C2.40097 162.669 1.96441 162.389 1.59523 162.035C1.2481 161.7 0.972889 161.3 0.785538 160.861C0.590418 160.423 0.489803 159.951 0.489929 159.474H1.77517C1.69824 159.852 1.71587 160.241 1.82658 160.611C1.96619 160.92 2.17213 161.197 2.43064 161.423C2.69597 161.664 3.00549 161.855 3.34316 161.985C3.71644 162.123 4.11335 162.191 4.51272 162.185C4.74369 162.203 4.97577 162.203 5.20675 162.185C5.45657 162.132 5.69843 162.048 5.92648 161.935C6.17358 161.826 6.40305 161.683 6.60766 161.51C6.82576 161.315 7.01596 161.093 7.17317 160.848C7.3391 160.561 7.46856 160.254 7.55873 159.936C7.65976 159.527 7.70726 159.108 7.70011 158.687H3.8444L3.8701 157.5Z" fill="white"/>
<path d="M12.4312 153.403H13.7165V158.113L18.5747 153.428H20.464L16.3255 157.313L20.5796 163.047H18.8703L15.3616 158.2L13.755 159.699V163.047H12.4698L12.4312 153.403Z" fill="white"/>
<path d="M32.6735 158.212C32.6697 158.632 32.6266 159.05 32.5449 159.462C32.4638 159.892 32.33 160.311 32.1465 160.711C31.9652 161.077 31.7455 161.425 31.4911 161.748C30.9231 162.414 30.1544 162.89 29.2933 163.109C28.8009 163.249 28.2897 163.317 27.7767 163.309C27.2593 163.32 26.7434 163.252 26.2473 163.109C25.7895 162.999 25.3547 162.814 24.962 162.56C24.6054 162.331 24.2887 162.049 24.0238 161.723C23.7608 161.403 23.5365 161.055 23.3555 160.686C23.1698 160.288 23.0401 159.868 22.9699 159.437C22.8818 159.026 22.8387 158.607 22.8414 158.187C22.8304 157.492 22.939 156.799 23.1627 156.139C23.3652 155.549 23.6887 155.005 24.1138 154.54C24.5373 154.087 25.06 153.733 25.6432 153.503C26.291 153.244 26.9864 153.116 27.6867 153.128C28.3914 153.115 29.0913 153.242 29.7431 153.503C30.3226 153.733 30.8411 154.087 31.2597 154.54C31.6848 155.005 32.0083 155.549 32.2108 156.139C32.4856 156.799 32.6421 157.501 32.6735 158.212ZM31.3882 158.212C31.3935 157.675 31.3156 157.14 31.1569 156.626C31.0162 156.168 30.7799 155.742 30.4629 155.377C30.1655 155.025 29.7867 154.747 29.3576 154.565C28.8889 154.362 28.3795 154.263 27.8667 154.277C27.354 154.265 26.8448 154.363 26.3758 154.565C25.9466 154.747 25.5679 155.025 25.2705 155.377C24.9594 155.746 24.7238 156.17 24.5765 156.626C24.2764 157.668 24.2764 158.77 24.5765 159.811C24.698 160.27 24.9218 160.696 25.2319 161.061C25.5072 161.395 25.8535 161.668 26.2473 161.86C26.7406 162.055 27.2701 162.149 27.8024 162.135C28.3261 162.145 28.8465 162.052 29.3319 161.86C29.7584 161.674 30.1362 161.396 30.4372 161.048C30.7373 160.677 30.9599 160.253 31.0926 159.799C31.2358 159.282 31.305 158.748 31.2983 158.212H31.3882Z" fill="white"/>
<path d="M35.9393 153.403H37.2246V158.113L42.0828 153.428H43.9335L39.7951 157.313L44.0492 163.047H42.3527L38.844 158.2L37.2246 159.699V163.047H35.9393V153.403Z" fill="white"/>
<path d="M46.9274 153.403H50.4875H51.5157C51.7929 153.423 52.0679 153.465 52.3383 153.528C52.5801 153.598 52.813 153.694 53.0323 153.815C53.2436 153.946 53.4341 154.106 53.5978 154.29C53.7595 154.489 53.8856 154.712 53.9705 154.952C54.0726 155.224 54.1205 155.512 54.1119 155.801C54.1074 155.982 54.0859 156.162 54.0476 156.339C53.9975 156.534 53.9242 156.722 53.8292 156.901C53.7181 157.09 53.5796 157.262 53.4179 157.413C53.2362 157.584 53.0224 157.72 52.7881 157.813C53.0051 157.878 53.2124 157.97 53.405 158.088C53.625 158.201 53.8212 158.354 53.9834 158.537C54.1684 158.736 54.3162 158.964 54.4204 159.212C54.5415 159.514 54.5984 159.837 54.5875 160.161C54.5858 160.38 54.5599 160.598 54.5103 160.811C54.4603 161.037 54.3781 161.256 54.2661 161.461C54.144 161.679 53.9927 161.88 53.8163 162.06C53.6262 162.256 53.4049 162.42 53.1608 162.547C52.882 162.695 52.5836 162.804 52.274 162.872C51.8955 162.962 51.5068 163.004 51.1173 162.997H46.9274V153.403ZM50.7831 157.5C51.1432 157.512 51.5031 157.47 51.8499 157.375C52.0805 157.32 52.2928 157.208 52.4668 157.051C52.6127 156.92 52.7156 156.751 52.7624 156.563C52.8149 156.368 52.8408 156.166 52.8395 155.964C52.842 155.756 52.8072 155.548 52.7367 155.352C52.6577 155.178 52.539 155.024 52.3897 154.902C52.194 154.774 51.9764 154.681 51.7471 154.627C51.4311 154.556 51.1074 154.523 50.7831 154.527H48.3026V157.5H50.7831ZM50.9245 161.86C51.2929 161.87 51.6608 161.828 52.017 161.735C52.28 161.677 52.5261 161.562 52.7367 161.398C52.9091 161.255 53.0455 161.076 53.1351 160.873C53.214 160.653 53.2531 160.42 53.2508 160.186C53.2542 159.952 53.215 159.72 53.1351 159.499C53.0525 159.293 52.915 159.112 52.7367 158.975C52.5238 158.812 52.2789 158.693 52.017 158.625C51.6591 158.543 51.2921 158.505 50.9245 158.512H48.2512V161.86H50.9245Z" fill="white"/>
<path d="M57.0937 163.022L60.8337 153.253H62.4531L66.0518 163.022H64.5866L63.5199 160.074H59.6642L58.5589 163.022H57.0937ZM63.1472 159.062L61.6306 154.777L59.9598 159.062H63.1472Z" fill="white"/>
<path d="M69.0471 153.403H73.237C73.7165 153.391 74.1945 153.459 74.6507 153.602C75.0211 153.719 75.3595 153.915 75.6404 154.177C75.9079 154.422 76.1107 154.727 76.2316 155.064C76.4883 155.81 76.4883 156.617 76.2316 157.363C76.1136 157.702 75.9103 158.007 75.6404 158.25C75.3595 158.512 75.0211 158.708 74.6507 158.824C74.1945 158.968 73.7165 159.036 73.237 159.024H70.3838V163.022H69.0985L69.0471 153.403ZM73.0956 157.9C73.6423 157.951 74.1888 157.8 74.625 157.475C74.7857 157.309 74.9097 157.112 74.9893 156.897C75.0688 156.682 75.1023 156.454 75.0877 156.226C75.1039 155.998 75.0711 155.769 74.9915 155.554C74.9118 155.339 74.787 155.142 74.625 154.977C74.1938 154.642 73.6446 154.485 73.0956 154.539H70.3838V157.912L73.0956 157.9Z" fill="white"/>
<path d="M79.1975 153.403H87.2945V154.527H83.9143V163.022H82.6291V154.527H79.1975V153.403Z" fill="white"/>
<path d="M89.4562 163.022L93.1834 153.253H94.8028L98.4143 163.022H96.9363L95.8952 160.074H91.9752L90.8699 163.022H89.4562ZM95.5096 159.062L93.9931 154.777L92.3094 159.062H95.5096Z" fill="white"/>
<path d="M107.513 154.527H103.953C103.953 155.277 103.953 156.001 103.953 156.726C103.953 157.45 103.953 158.125 103.837 158.775C103.79 159.371 103.705 159.963 103.58 160.549C103.476 161.032 103.312 161.502 103.092 161.948C102.922 162.312 102.661 162.63 102.334 162.872C102.02 163.103 101.634 163.223 101.241 163.209C101.135 163.224 101.026 163.224 100.92 163.209L100.624 163.134V161.86H100.817C100.924 161.875 101.032 161.875 101.138 161.86C101.34 161.859 101.533 161.783 101.678 161.648C101.85 161.473 101.982 161.264 102.064 161.036C102.185 160.733 102.275 160.419 102.334 160.099C102.334 159.737 102.462 159.349 102.501 158.924C102.539 158.5 102.578 158.05 102.604 157.588V156.151C102.604 155.664 102.604 155.177 102.604 154.69C102.604 154.202 102.604 153.728 102.604 153.278H108.798V162.897H107.513V154.527Z" fill="white"/>
<path d="M165.308 121.884C166.402 120.264 168.073 119.094 170 118.598C170.293 120.509 169.851 122.458 168.758 124.072C167.664 125.686 165.997 126.85 164.075 127.343C163.798 125.438 164.236 123.5 165.308 121.884V121.884Z" fill="white"/>
</svg>
