<svg width="48" height="48" viewBox="0 0 48 48" fill="none" xmlns="http://www.w3.org/2000/svg">
<g clip-path="url(#clip0)">
<path d="M47.1316 0H33.2645C32.7849 0 32.396 0.388876 32.396 0.868502C32.396 1.34813 32.7849 1.737 33.2645 1.737H37.0833V9.25268H20.2785V1.737H30.3694C30.8491 1.737 31.2379 1.34813 31.2379 0.868502C31.2379 0.388876 30.8492 0 30.3695 0H0.868502C0.388876 0 0 0.388876 0 0.868502V10.1212V19.3738V28.6263V37.879V47.1316C0 47.6112 0.388876 48.0001 0.868502 48.0001H47.1315C47.6111 48.0001 48 47.6112 48 47.1316V0.868502C48.0001 0.388876 47.6112 0 47.1316 0ZM29.4584 10.9897H46.2629V18.5053H35.0014C34.5218 18.5053 34.1329 18.8941 34.1329 19.3738C34.1329 19.8534 34.5218 20.2423 35.0014 20.2423H37.0833V27.7578H20.2785V20.2423H32.1063C32.586 20.2423 32.9748 19.8534 32.9748 19.3738C32.9748 18.8941 32.586 18.5053 32.1063 18.5053H29.4584V10.9897V10.9897ZM46.263 29.4947V37.0104H29.4584V29.4947H46.263ZM27.7214 10.9897V18.5053H10.9168V10.9897H27.7214V10.9897ZM1.737 1.737H18.5415V9.25268H1.737V1.737ZM1.737 10.9897H9.17983V18.5053H1.737V10.9897V10.9897ZM1.737 20.2424H18.5415V27.7579H1.737V20.2424ZM1.737 29.4947H9.17983V37.0104H1.737V29.4947V29.4947ZM18.5415 46.263H1.737V38.7474H14.2732C14.7528 38.7474 15.1417 38.3585 15.1417 37.8789C15.1417 37.3993 14.7528 37.0104 14.2732 37.0104H10.9168V29.4947H27.7214V37.0104H17.1682C16.6886 37.0104 16.2997 37.3993 16.2997 37.8789C16.2997 38.3585 16.6886 38.7474 17.1682 38.7474H18.5415V46.263ZM37.0833 46.263H20.2785V38.7474H37.0833V46.263ZM46.2631 46.2631H38.8203V38.7475H46.2631V46.2631ZM46.2631 27.7577H38.8203V20.2422H46.2631V27.7577ZM46.2631 9.25268H38.8203V1.737H46.2631V9.25268Z" fill="#CBC56C"/>
</g>
<defs>
<clipPath id="clip0">
<rect width="48" height="48" fill="white"/>
</clipPath>
</defs>
</svg>
