<svg width="48" height="48" viewBox="0 0 48 48" fill="none" xmlns="http://www.w3.org/2000/svg">
<path d="M30.5625 19.7812C30.5625 16.9381 28.2494 14.625 25.4062 14.625H18.375C17.8573 14.625 17.4375 15.0448 17.4375 15.5625V24C17.4375 24.5177 17.8573 24.9375 18.375 24.9375H25.4062C28.2494 24.9375 30.5625 22.6244 30.5625 19.7812ZM19.3125 16.5H25.4062C27.2155 16.5 28.6875 17.972 28.6875 19.7812C28.6875 21.5905 27.2155 23.0625 25.4062 23.0625H19.3125V16.5Z" fill="#CBC56C"/>
<path d="M36.1875 19.7812C36.1875 13.8365 31.351 9 25.4062 9H12.75C12.2323 9 11.8125 9.41981 11.8125 9.9375V38.0625C11.8125 38.5802 12.2323 39 12.75 39H18.375C18.8927 39 19.3125 38.5802 19.3125 38.0625V30.5625H25.4062C31.351 30.5625 36.1875 25.726 36.1875 19.7812ZM18.375 28.6875C17.8573 28.6875 17.4375 29.1073 17.4375 29.625V37.125H13.6875V10.875H25.4062C30.3172 10.875 34.3125 14.8703 34.3125 19.7812C34.3125 24.6922 30.3172 28.6875 25.4062 28.6875H18.375Z" fill="#CBC56C"/>
<path d="M24 48C24.5178 48 24.9375 47.5803 24.9375 47.0625C24.9375 46.5447 24.5178 46.125 24 46.125C23.4822 46.125 23.0625 46.5447 23.0625 47.0625C23.0625 47.5803 23.4822 48 24 48Z" fill="#CBC56C"/>
<path d="M44.25 0H3.75C1.68225 0 0 1.68225 0 3.75V44.25C0 46.3177 1.68225 48 3.75 48H19.7812C20.2989 48 20.7188 47.5802 20.7188 47.0625C20.7188 46.5448 20.2989 46.125 19.7812 46.125H3.75C2.71613 46.125 1.875 45.2839 1.875 44.25V3.75C1.875 2.71613 2.71613 1.875 3.75 1.875H44.25C45.2839 1.875 46.125 2.71613 46.125 3.75V44.25C46.125 45.2839 45.2839 46.125 44.25 46.125H28.2188C27.7011 46.125 27.2812 46.5448 27.2812 47.0625C27.2812 47.5802 27.7011 48 28.2188 48H44.25C46.3177 48 48 46.3177 48 44.25V3.75C48 1.68225 46.3177 0 44.25 0Z" fill="#CBC56C"/>
</svg>
