<svg width="48" height="48" viewBox="0 0 48 48" fill="none" xmlns="http://www.w3.org/2000/svg">
<g clip-path="url(#clip0)">
<path d="M47.1998 37.5995C47.6416 37.5995 47.9998 37.2413 47.9998 36.7995C47.9998 36.3577 47.6415 35.9996 47.1998 35.9996H46.3998C46.3998 35.5577 46.0417 35.1996 45.5999 35.1996C45.1581 35.1996 44.7999 35.5577 44.7999 35.9996H32.0001C32.0001 35.5577 31.6419 35.1996 31.2001 35.1996C30.7583 35.1996 30.4002 35.5577 30.4002 35.9996H29.6002C29.1584 35.9996 28.8003 36.3578 28.8003 36.7995C28.8003 37.2414 29.1584 37.5995 29.6002 37.5995H30.4002V39.9994H29.6002C29.1584 39.9994 28.8003 40.3576 28.8003 40.7994C28.8003 41.2412 29.1584 41.5993 29.6002 41.5993H30.4002V42.3993H29.6002C29.1584 42.3993 28.8003 42.7575 28.8003 43.1993C28.8003 43.641 29.1584 43.9992 29.6002 43.9992H30.4002V46.3992H16.8003V39.7805C17.9837 40.4474 19.3189 40.7983 20.6772 40.7993C25.2202 40.7339 28.8534 37.0044 28.8001 32.4611C28.8247 29.3025 27.0609 26.4014 24.245 24.9699C25.172 23.7078 25.6687 22.1812 25.6619 20.6153C25.6897 17.1594 23.2655 14.1681 19.8787 13.4794C20.7357 11.5896 20.5884 9.39613 19.4864 7.63797C18.3845 5.87972 16.4746 4.79083 14.4003 4.73824C14.3765 4.73824 14.3537 4.74161 14.33 4.7419C13.9041 1.98879 11.5185 -0.032052 8.73288 0.000384974C5.94724 0.0328219 3.60944 2.10879 3.24776 4.87108C1.22204 5.25939 -0.1764 7.12442 0.0185031 9.17788C0.213406 11.2313 1.93781 12.7998 4.00056 12.7999H8.6637C8.73588 13.03 8.82147 13.2557 8.92 13.4757C5.53344 14.1667 3.11042 17.1591 3.13882 20.6154C3.13198 22.1812 3.62866 23.7079 4.55555 24.97C1.73982 26.4016 -0.0240586 29.3026 0.000597211 32.4612C-0.0528393 37.0044 3.58047 40.734 8.12352 40.7994C9.48184 40.7984 10.817 40.4475 12.0004 39.7806V46.3993H0.800646C0.35881 46.3993 0.000690953 46.7574 0.000690953 47.1992C0.000690953 47.641 0.35881 47.9992 0.800646 47.9992H47.1998C47.6416 47.9992 47.9998 47.641 47.9998 47.1992C47.9998 46.7574 47.6415 46.3993 47.1998 46.3993H46.3998V43.9993H47.1998C47.6416 43.9993 47.9998 43.6412 47.9998 43.1993C47.9998 42.7575 47.6415 42.3994 47.1998 42.3994H46.3998V41.5994H47.1998C47.6416 41.5994 47.9998 41.2413 47.9998 40.7995C47.9998 40.3576 47.6415 39.9995 47.1998 39.9995H46.3998V37.5996H47.1998V37.5995ZM8.36961 10.9234C8.36961 11.0163 8.38011 11.1076 8.38423 11.1999H4.00056C2.67514 11.1999 1.6006 10.1255 1.6006 8.79998C1.6006 7.47447 2.67514 6.40002 4.00056 6.40002C4.21271 6.40012 4.41624 6.31584 4.56633 6.16575C4.71633 6.01575 4.80061 5.81222 4.80061 5.59997C4.79648 3.5122 6.40173 1.77392 8.48323 1.61211C10.5647 1.4502 12.4193 2.91952 12.7381 4.98283C10.1289 5.77978 8.35264 8.1953 8.36961 10.9234ZM15.2004 46.3993H13.6004V38.6046C13.8871 38.3376 14.1544 38.0506 14.4003 37.7456C14.6462 38.0506 14.9136 38.3376 15.2003 38.6045V46.3993H15.2004ZM15.2975 36.2337L20.5659 30.9652C20.8735 30.652 20.8711 30.1495 20.5608 29.8391C20.2505 29.5287 19.7479 29.5264 19.4347 29.834L15.2004 34.0683V25.9309L18.9659 22.1654C19.2749 21.8525 19.2734 21.3488 18.9623 21.0377C18.6514 20.7267 18.1477 20.7251 17.8346 21.0341L15.2003 23.6685V19.9998C15.2003 19.558 14.8421 19.1999 14.4003 19.1999C13.9585 19.1999 13.6004 19.5581 13.6004 19.9998V23.6685L10.9661 21.0341C10.6531 20.7251 10.1494 20.7267 9.83836 21.0377C9.5273 21.3487 9.5258 21.8524 9.8348 22.1654L13.6003 25.931V34.0683L9.36596 29.834C9.05303 29.525 8.54932 29.5266 8.23826 29.8376C7.9273 30.1485 7.92571 30.6523 8.2347 30.9653L13.5031 36.2337C12.3319 38.0738 10.3046 39.1914 8.12333 39.1995C4.46358 39.1351 1.54604 36.1213 1.60041 32.4613C1.56648 29.567 3.39588 26.9784 6.13549 26.0442C6.40033 25.957 6.60057 25.7381 6.66395 25.4665C6.72732 25.1949 6.64454 24.91 6.4457 24.7145C5.34603 23.635 4.7303 22.1563 4.73873 20.6154C4.68642 17.5628 7.10053 15.0367 10.1523 14.9506C10.4826 14.9798 10.7983 14.8088 10.9542 14.5162C11.0907 14.2473 11.0639 13.9245 10.8852 13.6818C10.2922 12.8842 9.9712 11.9172 9.96952 10.9233C9.93052 8.43502 11.9122 6.38437 14.4003 6.33824C16.8884 6.38437 18.8701 8.43502 18.831 10.9233C18.8293 11.9172 18.5083 12.8842 17.9153 13.6818C17.7402 13.9266 17.7183 14.2492 17.8587 14.5154C18.0001 14.7855 18.28 14.9545 18.5849 14.9537C21.6588 15.009 24.1084 17.5413 24.0618 20.6154C24.0702 22.1563 23.4544 23.635 22.3548 24.7145C22.1559 24.91 22.0732 25.1949 22.1366 25.4665C22.1999 25.7381 22.4002 25.957 22.665 26.0442C25.7375 27.1186 27.6105 30.2275 27.1242 33.4459C26.6378 36.6642 23.93 39.081 20.6772 39.1995C18.4959 39.1914 16.4687 38.0738 15.2975 36.2337ZM44.7998 46.3993H32.0001V43.9994H44.7998V46.3993V46.3993ZM44.7998 42.3994H32.0001V41.5994H44.7998V42.3994V42.3994ZM44.7998 39.9994H32.0001V37.5995H44.7998V39.9994V39.9994Z" fill="#CBC56C"/>
<path d="M34.4003 20.0001H44.0002C46.0628 20 47.7872 18.4315 47.9822 16.378C48.1771 14.3245 46.7787 12.4595 44.7529 12.0713C44.3868 9.28416 42.0113 7.20032 39.2002 7.20032C36.3892 7.20032 34.0137 9.28416 33.6476 12.0713C31.6218 12.4595 30.2234 14.3245 30.4183 16.378C30.6132 18.4315 32.3376 20 34.4003 20.0001ZM34.4003 13.6001C34.6125 13.6002 34.816 13.516 34.9661 13.3659C35.1161 13.2159 35.2004 13.0123 35.2004 12.8001C35.2004 10.591 36.9912 8.80013 39.2003 8.80013C41.4094 8.80013 43.2003 10.5909 43.2003 12.8001C43.2002 13.0122 43.2845 13.2158 43.4346 13.3659C43.5846 13.5159 43.7881 13.6001 44.0004 13.6001C45.3258 13.6001 46.4003 14.6747 46.4003 16.0001C46.4003 17.3255 45.3259 18.4001 44.0004 18.4001H34.4005C33.0751 18.4001 32.0005 17.3256 32.0005 16.0001C32.0005 14.6746 33.0748 13.6001 34.4003 13.6001Z" fill="#CBC56C"/>
</g>
<defs>
<clipPath id="clip0">
<rect width="48" height="48" fill="white"/>
</clipPath>
</defs>
</svg>
