<svg width="108" height="108" viewBox="0 0 108 108" fill="none" xmlns="http://www.w3.org/2000/svg">
<g clip-path="url(#clip0)">
<path d="M22.9134 86.3013C23.3791 86.8449 24.1945 86.9186 24.7504 86.4676L37.9033 75.787C38.4575 75.3256 38.5365 74.5051 38.0812 73.946C37.6249 73.3869 36.8044 73.2969 36.2381 73.7445L24.0828 83.6122L19.2712 77.9898C18.9662 77.6297 18.491 77.459 18.0254 77.5448C17.5605 77.6297 17.1764 77.9572 17.0192 78.4022C16.862 78.8481 16.9556 79.3429 17.2641 79.7005L22.9134 86.3013Z" fill="#CBC56C"/>
<path d="M23.8718 106.63L26.77 107.89C27.1051 108.036 27.4848 108.037 27.8208 107.892L31.0867 106.485C32.3729 105.94 33.6222 105.311 34.826 104.601H97.5934C100.673 104.598 103.167 102.108 103.171 99.0352V10.6644C103.167 7.59204 100.673 5.10195 97.5934 5.09852H69.0846C67.593 1.98333 64.4406 0 60.9814 0C57.5213 0 54.3697 1.98333 52.8781 5.09852H24.3685C21.2899 5.10195 18.7947 7.59118 18.7913 10.6644V56.7182L5.85408 63.7949C5.43135 64.0264 5.16843 64.4689 5.16843 64.9499V78.1284C5.18131 90.4914 12.5207 101.676 23.8718 106.63V106.63ZM97.5934 7.73266C99.2156 7.73438 100.529 9.04545 100.531 10.6644V99.0352C100.529 100.654 99.2156 101.965 97.5934 101.967H38.6289C41.7315 99.4605 44.3229 96.383 46.2613 92.9009H78.7405C78.9123 92.9 79.0842 92.8871 79.2552 92.8631C79.7312 92.9806 80.233 92.822 80.5552 92.4524C80.8954 92.2715 81.2065 92.0408 81.4788 91.769L92.1615 81.1072C92.8909 80.3835 93.2991 79.3991 93.2965 78.3736V20.2406C93.2939 18.3413 91.7525 16.8021 89.8493 16.7995H84.0135V12.7883C84.0135 12.0612 83.4224 11.4712 82.6938 11.4712H69.9645V8.96485C69.9636 8.5524 69.9335 8.14082 69.876 7.73266H97.5934ZM49.4696 63.788L31.3049 54.1269V20.2406C31.3049 19.7947 31.6666 19.4337 32.1134 19.4337H37.9492V22.9845C37.9492 23.7125 38.5404 24.3016 39.269 24.3016H82.6938C83.4224 24.3016 84.0135 23.7125 84.0135 22.9845V19.4337H89.8493C90.2952 19.4337 90.6578 19.7947 90.6578 20.2406V78.0589H83.8219C80.7433 78.0615 78.2482 80.5516 78.2447 83.6239V90.2659H47.5673C49.2849 86.3446 50.1707 82.1113 50.169 77.8317V64.9499C50.169 64.4637 49.9001 64.0161 49.4696 63.788V63.788ZM88.844 80.6931L80.8842 88.6367V83.6239C80.886 82.0058 82.1997 80.6939 83.8219 80.6931H88.844ZM60.9814 2.63415C64.4827 2.63843 67.3207 5.4698 67.325 8.96485V12.7883C67.325 13.5154 67.9152 14.1054 68.6447 14.1054H81.374V21.6674H40.5887V14.1054H53.318C54.0466 14.1054 54.6378 13.5154 54.6378 12.7883V8.96485C54.6421 5.4698 57.4792 2.63843 60.9814 2.63415V2.63415ZM21.4308 10.6644C21.4325 9.04545 22.7471 7.73438 24.3685 7.73266H52.085C52.0275 8.14082 51.9983 8.5524 51.9974 8.96485V11.4712H39.269C38.5404 11.4712 37.9492 12.0612 37.9492 12.7883V16.7995H32.1134C30.2103 16.8021 28.668 18.3413 28.6654 20.2406V52.7241L27.9918 52.3657C27.5991 52.1565 27.1274 52.1599 26.7373 52.3734L21.4308 55.2751V10.6644ZM7.80794 65.7302L20.7357 58.6595L20.7452 58.6535L27.38 55.0256L29.3502 56.0725L29.3639 56.0794L47.5295 65.7405V77.8317C47.5269 89.2892 40.6386 99.6269 30.053 104.061L30.0436 104.064L27.3001 105.247L24.9287 104.215C14.539 99.6817 7.81997 89.4444 7.80794 78.1284V65.7302Z" fill="#CBC56C"/>
<path d="M81.0937 37.7236H82.6945C83.4231 37.7236 84.0142 37.1337 84.0142 36.4066C84.0142 35.6794 83.4231 35.0895 82.6945 35.0895H81.0937C80.3651 35.0895 79.774 35.6794 79.774 36.4066C79.774 37.1337 80.3651 37.7236 81.0937 37.7236Z" fill="#CBC56C"/>
<path d="M52.6496 37.7236H76.1105C76.8391 37.7236 77.4302 37.1337 77.4302 36.4066C77.4302 35.6794 76.8391 35.0895 76.1105 35.0895H52.6496C51.921 35.0895 51.3298 35.6794 51.3298 36.4066C51.3298 37.1337 51.921 37.7236 52.6496 37.7236Z" fill="#CBC56C"/>
<path d="M39.2689 37.7236H47.563C48.2924 37.7236 48.8827 37.1337 48.8827 36.4066C48.8827 35.6794 48.2924 35.0895 47.563 35.0895H39.2689C38.5403 35.0895 37.9492 35.6794 37.9492 36.4066C37.9492 37.1337 38.5403 37.7236 39.2689 37.7236Z" fill="#CBC56C"/>
<path d="M76.8902 47.8604C76.8902 48.5875 77.4813 49.1775 78.21 49.1775H82.6951C83.4237 49.1775 84.0148 48.5875 84.0148 47.8604C84.0148 47.1333 83.4237 46.5433 82.6951 46.5433H78.21C77.4813 46.5433 76.8902 47.1333 76.8902 47.8604Z" fill="#CBC56C"/>
<path d="M73.3541 49.1775C74.0827 49.1775 74.6738 48.5875 74.6738 47.8604C74.6738 47.1333 74.0827 46.5433 73.3541 46.5433H67.2416C66.513 46.5433 65.9219 47.1333 65.9219 47.8604C65.9219 48.5875 66.513 49.1775 67.2416 49.1775H73.3541Z" fill="#CBC56C"/>
<path d="M64.2936 47.8604C64.2936 47.1333 63.7025 46.5433 62.9738 46.5433H39.2689C38.5403 46.5433 37.9492 47.1333 37.9492 47.8604C37.9492 48.5875 38.5403 49.1775 39.2689 49.1775H62.9738C63.7025 49.1775 64.2936 48.5875 64.2936 47.8604Z" fill="#CBC56C"/>
<path d="M82.6948 58.7117H57.8953C57.1658 58.7117 56.5755 59.3008 56.5755 60.0287C56.5755 60.7559 57.1658 61.3458 57.8953 61.3458H82.6948C83.4234 61.3458 84.0146 60.7559 84.0146 60.0287C84.0146 59.3008 83.4234 58.7117 82.6948 58.7117Z" fill="#CBC56C"/>
<path d="M54.3586 60.0287C54.3586 59.3008 53.7675 58.7117 53.0389 58.7117H47.1455C46.4169 58.7117 45.8257 59.3008 45.8257 60.0287C45.8257 60.7559 46.4169 61.3458 47.1455 61.3458H53.0389C53.7675 61.3458 54.3586 60.7559 54.3586 60.0287Z" fill="#CBC56C"/>
<path d="M82.6952 69.9583H66.7138C65.9852 69.9583 65.394 70.5482 65.394 71.2753C65.394 72.0025 65.9852 72.5924 66.7138 72.5924H82.6952C83.4238 72.5924 84.015 72.0025 84.015 71.2753C84.015 70.5482 83.4238 69.9583 82.6952 69.9583Z" fill="#CBC56C"/>
<path d="M61.8583 69.9583H53.4775C52.7489 69.9583 52.1577 70.5482 52.1577 71.2753C52.1577 72.0025 52.7489 72.5924 53.4775 72.5924H61.8583C62.5869 72.5924 63.178 72.0025 63.178 71.2753C63.178 70.5482 62.5869 69.9583 61.8583 69.9583Z" fill="#CBC56C"/>
</g>
<defs>
<clipPath id="clip0">
<rect width="108" height="108" fill="white"/>
</clipPath>
</defs>
</svg>
