<svg width="48" height="48" viewBox="0 0 48 48" fill="none" xmlns="http://www.w3.org/2000/svg">
<path d="M46.5339 12.5906L35.4058 1.4625C34.4589 0.515625 33.2121 0 31.8714 0H16.1308C14.7996 0 13.5433 0.515625 12.5964 1.4625L1.46831 12.6C0.521438 13.5469 0.0058136 14.7938 0.0058136 16.1344V31.8656C0.0058136 33.2062 0.521438 34.4625 1.46831 35.4094L12.6058 46.5375C13.5527 47.4844 14.7996 48 16.1402 48H31.8714C33.2121 48 34.4683 47.4844 35.4152 46.5375L46.5339 35.4C47.4808 34.4531 47.9964 33.2062 47.9964 31.8656V16.125C47.9964 14.7938 47.4808 13.5375 46.5339 12.5906ZM46.0183 31.8656C46.0183 32.6719 45.7089 33.4219 45.1371 33.9938L34.0089 45.1219C33.4371 45.6937 32.6871 46.0031 31.8808 46.0031H16.1402C15.3339 46.0031 14.5839 45.6937 14.0121 45.1219L2.88394 33.9938C2.31206 33.4219 2.00269 32.6719 2.00269 31.8656V16.125C2.00269 15.3281 2.32144 14.5687 2.88394 14.0062L14.0214 2.87813C14.5839 2.30625 15.3339 1.99687 16.1402 1.99687H31.8714C32.6777 1.99687 33.4277 2.31563 33.9996 2.87813L45.1371 14.0062C45.7089 14.5781 46.0183 15.3281 46.0183 16.1344V31.8656Z" fill="#CBC56C"/>
<path d="M10.4296 23.0903L10.1296 22.9966C9.02332 22.6872 8.00144 22.1622 8.00144 20.5028C8.00144 19.1247 8.90144 17.9997 10.0077 17.9997C11.0577 17.9997 11.9389 19.0216 11.9952 20.3341C12.0233 20.8872 12.4546 21.3747 13.0452 21.281C13.5983 21.2528 14.0202 20.7841 13.9921 20.231C13.8702 17.8685 12.1077 16.0122 9.99832 16.0122C7.78582 16.0122 5.99519 18.0278 5.99519 20.5122C5.99519 22.0591 6.62332 24.0841 9.57644 24.9278L9.87644 25.0122C10.9827 25.3309 12.0046 25.8466 12.0046 27.5059C12.0046 28.8841 11.1046 30.0091 9.99832 30.0091C8.94832 30.0091 8.07644 28.9778 8.00144 27.6747C7.97332 27.1216 7.56082 26.6903 6.95144 26.7278C6.39832 26.7559 5.97644 27.2247 6.00457 27.7778C6.12644 30.1403 7.88894 31.9966 9.99832 31.9966C12.2108 31.9966 14.0014 29.9809 14.0014 27.5059C14.0014 25.2559 12.8014 23.7747 10.4296 23.0903Z" fill="#CBC56C"/>
<path d="M23.0017 15.994H15.0048C14.4517 15.994 14.0017 16.444 14.0017 16.9971C14.0017 17.5503 14.4517 18.0003 15.0048 18.0003H23.0017C23.5548 18.0003 24.0048 17.5503 24.0048 16.9971C24.0048 16.444 23.5548 15.994 23.0017 15.994Z" fill="#CBC56C"/>
<path d="M19.0074 15.994C18.4543 15.994 18.0043 16.444 18.0043 16.9971V30.994C18.0043 31.5471 18.4543 31.9971 19.0074 31.9971C19.5605 31.9971 20.0012 31.5565 20.0105 30.994V16.9971C20.0105 16.444 19.5605 15.994 19.0074 15.994Z" fill="#CBC56C"/>
<path d="M28.0073 15.994C25.7948 15.994 24.0042 17.794 24.0042 19.9971V27.994C24.0042 30.2065 25.8042 31.9971 28.0073 31.9971C30.2104 31.9971 32.0011 30.2065 32.0104 27.994V19.9971C32.0104 17.7846 30.2198 15.994 28.0073 15.994ZM30.0042 27.994C30.0042 29.0909 29.1136 29.9909 28.0073 29.9909C26.9104 29.9909 26.0104 29.1003 26.0104 27.994V19.9971C26.0104 18.9003 26.9011 18.0003 28.0073 18.0003C29.1042 18.0003 30.0042 18.9003 30.0042 19.9971V27.994Z" fill="#CBC56C"/>
<path d="M39.0044 15.994H35.0013C34.4482 15.994 33.9982 16.444 33.9982 16.9971V30.994C33.9982 31.5471 34.4482 31.9971 35.0013 31.9971C35.5544 31.9971 36.0044 31.5565 36.0044 30.994V25.9971H39.0044C40.6544 25.9971 42.0044 24.6471 42.0044 22.9971V18.994C42.0044 17.344 40.6544 15.994 39.0044 15.994ZM40.0076 22.9971C40.0076 23.5503 39.5576 24.0003 39.0044 24.0003H36.0044V17.9909H39.0044C39.5576 17.9909 40.0076 18.4409 40.0076 18.994V22.9971Z" fill="#CBC56C"/>
</svg>
