<svg width="48" height="48" viewBox="0 0 48 48" fill="none" xmlns="http://www.w3.org/2000/svg">
<g clip-path="url(#clip0)">
<path d="M3.9749 19.2605C3.72624 19.2605 3.48674 19.162 3.31096 18.9862L0.514938 16.1906C0.176925 15.8525 -0.00581427 15.4032 4.51015e-05 14.9253C0.00627068 14.4492 0.199264 14.0065 0.543868 13.6791C6.89763 7.63879 15.2278 4.3125 24 4.3125C32.7723 4.3125 41.1025 7.63879 47.4562 13.6791C47.8008 14.0065 47.9938 14.4489 48 14.9253C48.0059 15.4036 47.8228 15.8529 47.4848 16.1909L45.2582 18.4156C44.5815 19.0917 43.5059 19.1052 42.8086 18.4471C37.7051 13.6249 31.0254 10.9691 24 10.9691C16.6861 10.9691 9.80974 13.8164 4.63737 18.9862C4.46159 19.162 4.22319 19.2605 3.9749 19.2605V19.2605ZM1.92705 14.9513L3.98479 17.0083C9.42778 11.8975 16.4982 9.09412 24 9.09412C31.4686 9.09412 38.5723 11.9041 44.0146 17.0072L46.0727 14.9509C40.0804 9.29846 32.2471 6.1875 24 6.1875C15.753 6.1875 7.91936 9.29883 1.92705 14.9513Z" fill="#CBC56C"/>
<path d="M37.2466 25.699C36.8228 25.699 36.3984 25.5452 36.0622 25.2357C33.5266 22.9015 30.3991 21.3634 27.0179 20.787C26.5078 20.7002 26.1643 20.2157 26.2514 19.7052C26.3386 19.1951 26.8213 18.8508 27.3332 18.9387C31.0327 19.5693 34.4571 21.2411 37.2444 23.7756L39.3032 21.7179C35.1207 17.869 29.6909 15.7512 24 15.7512C18.3087 15.7512 12.8792 17.869 8.69674 21.7179L10.7556 23.7756C13.1964 21.5564 16.17 19.9777 19.3619 19.2072C19.8658 19.0856 20.3716 19.3954 20.4931 19.8986C20.6147 20.4017 20.3049 20.9082 19.8017 21.0298C16.8805 21.7348 14.161 23.1893 11.9377 25.2357C11.2445 25.8737 10.1784 25.8499 9.51083 25.1826L7.2839 22.9564C6.94369 22.6166 6.76095 22.1647 6.76974 21.6838C6.77817 21.2089 6.98288 20.7507 7.33114 20.4266C11.8736 16.2024 17.7934 13.8762 24 13.8762C30.2065 13.8762 36.1263 16.2024 40.6688 20.4266C41.0171 20.7507 41.2214 21.2089 41.2302 21.6838C41.2386 22.1647 41.0562 22.6166 40.716 22.9564L38.4891 25.1823C38.1452 25.5258 37.6963 25.699 37.2466 25.699Z" fill="#CBC56C"/>
<path d="M30.4753 32.4751C30.0721 32.4751 29.6667 32.3345 29.3327 32.051C27.847 30.7905 25.9529 30.0962 23.9999 30.0962C22.0469 30.0962 20.1533 30.7905 18.6676 32.051C17.9626 32.6487 16.942 32.6102 16.293 31.9617L14.0566 29.7263C13.7146 29.3843 13.5271 28.9111 13.5421 28.4277C13.5567 27.9476 13.7709 27.4902 14.1302 27.1731C16.8548 24.7656 20.3602 23.4396 23.9999 23.4396C27.6397 23.4396 31.1451 24.7656 33.8701 27.1735C34.2289 27.4902 34.4435 27.9476 34.4582 28.4277C34.4728 28.9111 34.2853 29.3843 33.9433 29.7263L31.7068 31.9617C31.3659 32.3026 30.9221 32.4751 30.4753 32.4751V32.4751ZM23.9999 28.2212C26.3613 28.2212 28.6527 29.0485 30.4643 30.5529L32.5275 28.4904C30.1603 26.441 27.1376 25.3146 23.9999 25.3146C20.8626 25.3146 17.8395 26.4414 15.4724 28.4904L17.536 30.5529C19.3472 29.0485 21.6386 28.2212 23.9999 28.2212V28.2212Z" fill="#CBC56C"/>
<path d="M24.0054 43.6873C21.0589 43.6873 18.6617 41.2908 18.6617 38.345C18.6617 36.9186 19.2172 35.5771 20.2261 34.5671C21.2358 33.5579 22.5776 33.0023 24.0054 33.0023C25.4318 33.0023 26.7736 33.5579 27.7836 34.5664C28.7936 35.5771 29.3492 36.9189 29.3492 38.345C29.3492 41.2908 26.952 43.6873 24.0054 43.6873V43.6873ZM24.0054 34.8773C23.0782 34.8773 22.207 35.238 21.5522 35.8928C20.8974 36.5483 20.5367 37.4192 20.5367 38.345C20.5367 40.2566 22.0927 41.8123 24.0054 41.8123C25.9181 41.8123 27.4742 40.2566 27.4742 38.345C27.4742 37.4192 27.1131 36.548 26.4579 35.8925C25.8028 35.238 24.9316 34.8773 24.0054 34.8773V34.8773Z" fill="#CBC56C"/>
<path d="M23.4272 20.5269C22.9093 20.5269 22.4889 20.1072 22.4889 19.5894C22.4889 19.0715 22.9086 18.6519 23.4261 18.6519H23.4272C23.945 18.6519 24.3647 19.0715 24.3647 19.5894C24.3647 20.1072 23.945 20.5269 23.4272 20.5269V20.5269Z" fill="#CBC56C"/>
</g>
<defs>
<clipPath id="clip0">
<rect width="48" height="48" fill="white"/>
</clipPath>
</defs>
</svg>
