<svg width="48" height="48" viewBox="0 0 48 48" fill="none" xmlns="http://www.w3.org/2000/svg">
<path d="M38.7693 3.25793H9.30319C8.8688 3.25793 8.57921 3.54753 8.57921 3.98192V43.9457C8.57921 44.3801 8.8688 44.6697 9.30319 44.6697H38.7693C39.2036 44.6697 39.4932 44.3801 39.4932 43.9457V3.98192C39.4932 3.61993 39.2036 3.25793 38.7693 3.25793ZM10.0272 4.7059H23.276V16.5792H10.0272V4.7059ZM23.3484 43.2217H10.0272V31.3484H23.3484V43.2217ZM23.3484 29.9005H10.0272V18.0272H23.3484V29.9005ZM38.0453 43.2217H24.724V31.3484H38.0453V43.2217ZM38.0453 29.9005H24.724V18.0272H38.0453V29.9005ZM38.0453 16.5792H24.724V4.7059H38.0453V16.5792Z" fill="#CBC56C"/>
<path d="M42.0994 0H5.90034C5.46595 0 5.17636 0.289593 5.17636 0.723982V47.276C5.17636 47.7104 5.53835 48 5.90034 48H42.0994C42.5338 48 42.8234 47.7104 42.8234 47.276V0.723982C42.8234 0.289593 42.5338 0 42.0994 0ZM41.3755 46.552H6.62432V1.44796H41.3755V46.552Z" fill="#CBC56C"/>
</svg>
