<svg width="57" height="57" viewBox="0 0 57 57" fill="none" xmlns="http://www.w3.org/2000/svg">
<rect x="0.707106" width="39" height="39" transform="matrix(0.707106 -0.707107 0.707106 0.707107 0.207107 28.7843)" fill="#CBC56C" stroke="#413046"/>
<g clip-path="url(#clip0)">
<path d="M28.1236 40.6567C24.0112 40.6567 20.3708 37.96 19.3596 34.1173C18.0787 34.1173 17 33.0387 17 31.6904C17 30.3421 18.0787 29.2634 19.427 29.2634H19.6292C20.9101 25.8252 24.2809 23.5331 28.1236 23.5331C31.9663 23.5331 35.3371 25.8252 36.618 29.2634H36.8202C38.1685 29.2634 39.2472 30.3421 39.2472 31.6904C39.2472 33.0387 38.1685 34.1173 36.8876 34.1173C35.8764 37.8926 32.236 40.6567 28.1236 40.6567ZM19.427 29.9376C18.4831 29.9376 17.6742 30.7466 17.6742 31.6904C17.6742 32.6342 18.4831 33.4432 19.427 33.4432H19.6292C19.764 33.4432 19.8989 33.578 19.9663 33.7129C20.7753 37.3533 24.2135 39.9825 28.1236 39.9825C32.0337 39.9825 35.4719 37.3533 36.2809 33.7129C36.3483 33.578 36.4831 33.4432 36.618 33.4432H36.8202C37.764 33.4432 38.573 32.6342 38.573 31.6904C38.573 30.7466 37.764 29.9376 36.8202 29.9376H36.3483C36.2135 29.9376 36.0787 29.8702 36.0112 29.7353C34.9326 26.432 31.6966 24.2747 28.0562 24.2747C24.4157 24.2747 21.3146 26.432 20.1685 29.7353C20.1011 29.8702 19.9663 29.9376 19.8315 29.9376H19.427Z" fill="#413046"/>
<path d="M30.9551 33.8477C31.4019 33.8477 31.7641 33.4855 31.7641 33.0387C31.7641 32.5919 31.4019 32.2297 30.9551 32.2297C30.5083 32.2297 30.1461 32.5919 30.1461 33.0387C30.1461 33.4855 30.5083 33.8477 30.9551 33.8477Z" fill="#413046"/>
<path d="M25.6292 33.8477C26.076 33.8477 26.4382 33.4855 26.4382 33.0387C26.4382 32.5919 26.076 32.2297 25.6292 32.2297C25.1824 32.2297 24.8202 32.5919 24.8202 33.0387C24.8202 33.4855 25.1824 33.8477 25.6292 33.8477Z" fill="#413046"/>
<path d="M28.1237 37.4207C27.3147 37.4207 26.5057 37.2184 25.7641 36.7465L25.6293 36.6791C25.4945 36.6117 25.427 36.342 25.4945 36.2072C25.5619 36.0724 25.8315 36.0049 25.9664 36.0724L26.1012 36.1398C27.3821 36.8814 28.9327 36.8814 30.1462 36.1398L30.281 36.0724C30.4158 36.0049 30.6181 36.0049 30.7529 36.2072C30.8877 36.4094 30.8203 36.5443 30.6181 36.6791L30.4832 36.7465C29.7417 37.2184 28.9327 37.4207 28.1237 37.4207Z" fill="#413046"/>
<path d="M28.528 22.1174C26.91 22.1174 25.5617 20.7691 25.5617 19.1511C25.5617 17.8028 26.6404 16.7241 27.9887 16.7241C29.1347 16.7241 30.0111 17.6679 30.0111 18.7466C30.0111 19.6904 29.2696 20.432 28.3258 20.432C27.5168 20.432 26.91 19.8252 26.91 19.0163C26.91 18.814 27.0449 18.6792 27.2471 18.6792C27.4493 18.6792 27.5842 18.814 27.5842 19.0163C27.5842 19.4208 27.9213 19.7578 28.3258 19.7578C28.8651 19.7578 29.337 19.2859 29.337 18.7466C29.337 18.005 28.7302 17.3983 27.9887 17.3983C26.9774 17.3983 26.2359 18.2073 26.2359 19.1511C26.2359 20.432 27.2471 21.4432 28.528 21.4432C28.7302 21.4432 28.8651 21.5781 28.8651 21.7803C28.8651 21.9825 28.7302 22.1174 28.528 22.1174Z" fill="#413046"/>
<path d="M32.0337 23.8701C30.9551 23.8701 28.9326 23.4656 28.6629 23.3982L28.4607 23.3308V21.9151L28.6629 21.8476C29.4045 21.4432 31.8315 20.0948 32.6405 20.7016C33.1798 21.1061 33.382 22.1173 33.1798 22.9263C33.045 23.4656 32.7753 23.8027 32.3708 23.8701C32.3034 23.8701 32.1686 23.8701 32.0337 23.8701ZM29.1349 22.7915C30.0113 22.9263 31.6966 23.2634 32.3034 23.196C32.3708 23.196 32.4382 23.0611 32.5056 22.7915C32.6405 22.1847 32.5056 21.4432 32.236 21.2409C31.9663 21.0387 30.4832 21.578 29.1349 22.3196V22.7915Z" fill="#413046"/>
<path d="M24.2134 23.8701C24.0786 23.8701 24.0111 23.8701 23.8763 23.8701C23.4718 23.8027 23.2022 23.4656 23.0673 22.9263C22.8651 22.1173 23.0673 21.1061 23.6741 20.7016C24.4831 20.1623 26.9774 21.4432 27.6516 21.8477L27.7864 21.9151V23.3308L27.5168 23.3982C27.3145 23.4656 25.2246 23.8701 24.2134 23.8701ZM24.2134 21.1735C24.146 21.1735 24.0786 21.1735 24.0111 21.2409C23.7415 21.4432 23.6067 22.1847 23.7415 22.7241C23.8089 22.9937 23.9437 23.1286 23.9437 23.1286C24.5505 23.196 26.2359 22.9263 27.1123 22.7241V22.3196C25.9662 21.6454 24.7527 21.1735 24.2134 21.1735Z" fill="#413046"/>
<path d="M28.3932 23.7354H27.9213C27.5168 23.7354 27.2471 23.3983 27.2471 23.0612V22.1174C27.2471 21.7129 27.5842 21.4432 27.9213 21.4432H28.3932C28.7977 21.4432 29.0673 21.7803 29.0673 22.1174V23.0612C29.1347 23.4657 28.7977 23.7354 28.3932 23.7354ZM27.9213 22.05V23.0612H28.4606V22.1174L27.9213 22.05Z" fill="#413046"/>
</g>
<defs>
<clipPath id="clip0">
<rect x="17" y="16.6567" width="22.2472" height="24" fill="white"/>
</clipPath>
</defs>
</svg>
