<svg width="46" height="46" viewBox="0 0 46 46" fill="none" xmlns="http://www.w3.org/2000/svg">
<rect x="0.707107" y="22.6276" width="31" height="31" transform="rotate(-45 0.707107 22.6276)" fill="white" stroke="#9FBBB8"/>
<g clip-path="url(#clip0)">
<path d="M30.99 29.3339L29.8391 16.3635C29.8184 16.1068 29.6031 15.9122 29.3423 15.9122H26.9163C26.9122 13.7553 25.1569 12 23 12C20.843 12 19.0877 13.7553 19.0836 15.9122H16.6576C16.4009 15.9122 16.1856 16.1068 16.1608 16.3635L15.0099 29.3339C15.0099 29.3504 15.0099 29.3629 15.0099 29.3794C15.0099 30.8243 16.3388 32 17.9699 32H28.03C29.6611 32 30.99 30.8243 30.99 29.3794C30.99 29.3629 30.99 29.3504 30.99 29.3339ZM23 12.9936C24.6104 12.9936 25.9186 14.3018 25.9227 15.9122H20.0772C20.0813 14.3018 21.3895 12.9936 23 12.9936ZM28.03 31.0023H17.9699C16.8936 31.0023 16.0159 30.2861 16.0035 29.396L17.113 16.9058H19.0836V18.6487C19.0836 18.922 19.3071 19.1455 19.5804 19.1455C19.8536 19.1455 20.0772 18.922 20.0772 18.6487V16.9058H25.9227V18.6487C25.9227 18.922 26.1463 19.1455 26.4195 19.1455C26.6928 19.1455 26.9163 18.922 26.9163 18.6487V16.9058H28.8869L29.9964 29.4001C29.984 30.2861 29.1063 31.0023 28.03 31.0023Z" fill="#DFB555"/>
</g>
<defs>
<clipPath id="clip0">
<rect width="20" height="20" fill="white" transform="translate(13 12)"/>
</clipPath>
</defs>
</svg>
