<svg width="46" height="46" viewBox="0 0 46 46" fill="none" xmlns="http://www.w3.org/2000/svg">
<rect x="0.707107" y="22.6276" width="31" height="31" transform="rotate(-45 0.707107 22.6276)" fill="white" stroke="#9FBBB8"/>
<path d="M32.5659 21.1033C32.9596 20.7197 33.0986 20.1566 32.9288 19.6332C32.7586 19.1097 32.3152 18.7361 31.7706 18.6568L26.928 17.9532C26.7217 17.9231 26.5435 17.7938 26.4514 17.6067L24.2864 13.2187C24.0433 12.7257 23.5499 12.4193 23 12.4193C22.4506 12.4193 21.9572 12.7257 21.7141 13.2187L19.5487 17.6067C19.4566 17.7938 19.278 17.9231 19.0717 17.9532L14.2291 18.6572C13.6849 18.7361 13.2415 19.1097 13.0713 19.6332C12.9015 20.1566 13.0405 20.7197 13.4342 21.1033L16.938 24.5186C17.0873 24.6644 17.1558 24.8743 17.1206 25.0793L16.2936 29.9023C16.2007 30.4441 16.4189 30.9812 16.8639 31.3048C17.3084 31.6288 17.8871 31.6708 18.3745 31.4141L22.7053 29.137C22.8899 29.0401 23.1102 29.0401 23.2948 29.137L27.626 31.4141C27.8374 31.5254 28.0665 31.5803 28.2944 31.5803C28.5903 31.5803 28.8851 31.4878 29.1366 31.3048C29.5815 30.9812 29.7998 30.4441 29.7069 29.9023L28.8795 25.0797C28.8443 24.8743 28.9127 24.6648 29.0621 24.519L32.5659 21.1033ZM28.0905 25.2151L28.9175 30.0377C28.9592 30.2803 28.8651 30.5122 28.6656 30.6572C28.4658 30.8018 28.2171 30.8194 27.9988 30.7057L23.6676 28.4281C23.459 28.3188 23.2291 28.2635 23 28.2635C22.771 28.2635 22.5415 28.3188 22.3324 28.4285L18.002 30.7057C17.783 30.8194 17.5343 30.8018 17.3348 30.6572C17.1354 30.5122 17.0417 30.2807 17.0829 30.0377L17.9099 25.2151C17.9896 24.7497 17.8354 24.2747 17.4974 23.9455L13.9932 20.5298C13.8166 20.3576 13.7565 20.1149 13.833 19.8807C13.9091 19.646 14.1002 19.485 14.3441 19.4493L19.1863 18.7457C19.6536 18.678 20.0577 18.3849 20.2664 17.9612L22.4318 13.5731C22.5407 13.352 22.7533 13.2203 22.9996 13.2203C23.2463 13.2203 23.4586 13.352 23.5679 13.5731L25.7333 17.9612C25.942 18.3849 26.3457 18.678 26.813 18.7457L31.6556 19.4493C31.8995 19.485 32.0905 19.646 32.1666 19.8807C32.2427 20.1149 32.1831 20.3576 32.0064 20.5298L28.5026 23.9451C28.1646 24.2747 28.0105 24.7493 28.0905 25.2151Z" fill="#DFB555"/>
</svg>
