<svg width="57" height="57" viewBox="0 0 57 57" fill="none" xmlns="http://www.w3.org/2000/svg">
<rect x="0.707107" y="28.2843" width="39" height="39" transform="rotate(-45 0.707107 28.2843)" fill="#CBC56C" stroke="#413046"/>
<g clip-path="url(#clip0)">
<path d="M39.6332 26.4956C39.3839 26.1964 39.0329 26.025 38.6702 26.025H38.125V25.5847C38.125 24.7939 37.438 24.15 36.5939 24.15H35.875V23.3374C35.875 22.9549 35.7119 22.5817 35.428 22.3132C34.8632 21.7796 33.8871 21.7796 33.3224 22.3132C33.0381 22.5821 32.875 22.9552 32.875 23.3377V27.1504H23.125V23.3377C23.125 22.9552 22.9623 22.5821 22.678 22.3136C22.1133 21.78 21.1371 21.78 20.5724 22.3136C20.2881 22.5821 20.125 22.9552 20.125 23.3377V24.1504H19.3188C18.9396 24.1504 18.5811 24.2872 18.3089 24.5359C18.0333 24.789 17.875 25.1422 17.875 25.5045V26.025H17.335C16.9705 26.025 16.618 26.1971 16.3679 26.4975C16.1309 26.7825 16 27.1571 16 27.552V29.748C16 30.1429 16.1309 30.5175 16.3682 30.8025C16.6184 31.1029 16.9709 31.275 17.335 31.275H17.875V31.7955C17.875 32.1577 18.0332 32.511 18.3096 32.7649C18.5811 33.0131 18.9396 33.15 19.3188 33.15H20.125V33.9626C20.125 34.3451 20.2881 34.7182 20.572 34.9864C20.8544 35.253 21.2283 35.4 21.625 35.4C22.0217 35.4 22.3956 35.253 22.678 34.9864C22.9623 34.7179 23.125 34.3447 23.125 33.9626V30.15H32.875V33.9626C32.875 34.3451 33.0381 34.7182 33.322 34.9864C33.6044 35.253 33.9783 35.4 34.375 35.4C34.7717 35.4 35.1456 35.253 35.428 34.9864C35.7119 34.7179 35.875 34.3447 35.875 33.9626V33.15H36.5939C37.438 33.15 38.125 32.5065 38.125 31.7152V31.275H38.6702C39.0329 31.275 39.3839 31.1032 39.6336 30.8044C39.8699 30.5205 40.0004 30.1477 40.0004 29.7544V27.546C40 27.1526 39.8699 26.7795 39.6332 26.4956ZM17.335 30.525C17.1921 30.525 17.0534 30.453 16.9446 30.3225C16.8209 30.1744 16.75 29.9647 16.75 29.748V27.552C16.75 27.3352 16.8209 27.126 16.9446 26.9775C17.0534 26.847 17.1921 26.775 17.335 26.775H17.875V30.525H17.335ZM19.3188 32.4C19.1301 32.4 18.9468 32.3314 18.8166 32.2121C18.6929 32.0985 18.625 31.9507 18.625 31.7955V30.9V26.4V25.5045C18.625 25.3492 18.6929 25.2011 18.8159 25.0882C18.9471 24.9686 19.1301 24.9 19.3188 24.9H20.125V32.4H19.3188ZM22.375 33.9626C22.375 34.1422 22.2996 34.3121 22.1631 34.4411C21.8819 34.7066 21.3685 34.7066 21.0872 34.4411C20.9504 34.3121 20.875 34.1419 20.875 33.9626V32.775V24.525V23.3374C20.875 23.1577 20.9504 22.9879 21.0869 22.8589C21.2275 22.7261 21.4236 22.65 21.625 22.65C21.8264 22.65 22.0225 22.7261 22.1631 22.8589C22.2996 22.9879 22.375 23.1581 22.375 23.3377V27.5254V29.7754V33.9626ZM23.125 29.4V27.9H32.875V29.4H23.125ZM35.125 33.9626C35.125 34.1422 35.0496 34.3121 34.9131 34.4411C34.6319 34.7066 34.1185 34.7066 33.8373 34.4411C33.7004 34.3121 33.625 34.1419 33.625 33.9626V29.775V27.525V23.3377C33.625 23.1581 33.7004 22.9882 33.8369 22.8592C33.9775 22.7265 34.1736 22.6504 34.375 22.6504C34.5764 22.6504 34.7725 22.7265 34.9131 22.8592C35.0496 22.9879 35.125 23.1581 35.125 23.3377V24.5254V32.7754V33.9626ZM37.375 31.7152C37.375 32.0929 37.0247 32.4 36.5939 32.4H35.875V24.9H36.5939C37.0244 24.9 37.375 25.2071 37.375 25.5847V26.4V30.9V31.7152ZM39.25 29.754C39.25 29.9692 39.1795 30.1766 39.0573 30.324C38.9493 30.4537 38.8116 30.525 38.6702 30.525H38.125V26.775H38.6702C38.8116 26.775 38.9493 26.8462 39.0573 26.976C39.1799 27.123 39.25 27.3307 39.25 27.546V29.754Z" fill="#413046"/>
</g>
<defs>
<clipPath id="clip0">
<rect x="16" y="16.6567" width="24" height="24" fill="white"/>
</clipPath>
</defs>
</svg>
