<svg width="57" height="57" viewBox="0 0 57 57" fill="none" xmlns="http://www.w3.org/2000/svg">
<rect x="0.707107" y="28.2843" width="39" height="39" transform="rotate(-45 0.707107 28.2843)" fill="#CBC56C" stroke="#413046"/>
<g clip-path="url(#clip0)">
<path d="M40 20.1461V19.6355H33.7872C32.6808 19.6355 31.6596 20.1461 31.0638 20.9972L29.3617 23.295C29.1915 23.4652 29.1064 23.6355 28.8511 23.7206L28.5106 23.8908V20.4865L28.6809 20.4014C29.4468 20.1461 29.9574 19.3801 29.9574 18.6142C29.9574 17.5078 29.1064 16.6567 28 16.6567C26.8936 16.6567 26.0426 17.5078 26.0426 18.6142C26.0426 19.4652 26.5532 20.1461 27.3191 20.4014L27.4894 20.4865V23.8908L27.1489 23.7206C26.9787 23.6355 26.8085 23.4652 26.6383 23.295L24.8511 20.9972C24.2553 20.1461 23.234 19.6355 22.1277 19.6355H16V20.1461C16 21.2525 16.5106 22.1887 17.3617 22.8695L17.8723 23.295H17.4468C17.5319 24.3163 17.9574 25.1674 18.8085 25.7631L19.3191 26.0184H18.8936C18.9787 27.8057 20.4255 29.1674 22.2128 29.1674H27.4894V31.0397H22.2979C21.1915 31.0397 20.3404 31.8908 20.3404 32.9972C20.3404 34.1035 21.1915 34.9546 22.2979 34.9546H27.4894V36.827H25.1064C24 36.827 23.1489 37.678 23.1489 38.7844C23.1489 39.8908 24 40.7418 25.1064 40.7418H31.3191V39.6355H28.4255V37.7631H32.2553C33.3617 37.7631 34.2128 36.9121 34.2128 35.8057C34.2128 34.6993 33.3617 33.8482 32.2553 33.8482H28.4255V31.9759H36.2553V30.9546H28.4255V29.0823H33.7021C35.4894 29.0823 36.9362 27.7206 37.0213 25.9333H36.5957L37.1064 25.5078C37.8723 24.9121 38.383 23.9759 38.4681 23.0397H38.1277L38.6383 22.6142C39.4894 22.1887 40 21.1674 40 20.1461ZM27.4894 39.6355H25.1064C24.5957 39.6355 24.1702 39.2099 24.1702 38.6993C24.1702 38.1887 24.5957 37.7631 25.1064 37.7631H27.4894V39.6355ZM27.4894 33.9333H22.2979C21.7872 33.9333 21.3617 33.5078 21.3617 32.9972C21.3617 32.4865 21.7872 32.061 22.2979 32.061H27.4894V33.9333ZM27.4894 28.2312H22.2128C21.1915 28.2312 20.2553 27.5504 20 26.6142L19.9149 26.2738H20.2553C20.4255 26.2738 20.5957 26.3589 20.8511 26.3589H24.2553V25.3376H20.8511C19.8298 25.3376 18.8936 24.6567 18.6383 23.7206L18.4681 23.3801L18.8085 23.4652C18.9787 23.4652 19.1489 23.4652 19.4043 23.4652H22.8085V22.444H19.4043C18.383 22.444 17.4468 21.8482 17.1064 20.9121L17.0213 20.6567H22.2128C22.9787 20.6567 23.6596 20.9972 24.0851 21.5929L25.8723 23.8908C26.2128 24.4014 26.7234 24.7418 27.3191 24.827H27.4894V28.2312V28.2312ZM32.2553 34.9546C32.766 34.9546 33.1915 35.3801 33.1915 35.8908C33.1915 36.4014 32.766 36.827 32.2553 36.827H28.4255V34.9546H32.2553V34.9546ZM28 19.5504C27.4894 19.5504 27.0638 19.1248 27.0638 18.6142C27.0638 18.1035 27.4894 17.678 28 17.678C28.5106 17.678 28.9362 18.1035 28.9362 18.6142C28.9362 19.1248 28.5106 19.5504 28 19.5504ZM36.5957 22.444H33.1915V23.4652H36.5957C36.766 23.4652 36.9362 23.4652 37.1915 23.3801L37.5319 23.295L37.4468 23.6355C37.1064 24.5716 36.2553 25.2525 35.234 25.2525H31.8298V26.2738H35.234C35.4043 26.2738 35.6596 26.2738 35.8298 26.1887L36.1702 26.1035L36.0851 26.444C35.7447 27.3801 34.8936 28.061 33.8723 28.061H28.5957V24.827H28.766C29.3617 24.6567 29.8723 24.3163 30.2128 23.8908L31.9149 21.5929C32.3404 20.9972 33.1064 20.6567 33.8723 20.6567H38.9787L38.8936 20.9121C38.5532 21.8482 37.617 22.444 36.5957 22.444Z" fill="#413046"/>
</g>
<defs>
<clipPath id="clip0">
<rect x="16" y="16.6567" width="24" height="24" fill="white"/>
</clipPath>
</defs>
</svg>
