<svg width="92" height="91" viewBox="0 0 92 91" fill="none" xmlns="http://www.w3.org/2000/svg">
<rect x="1.30525" y="45.5981" width="63" height="63" transform="rotate(-45 1.30525 45.5981)" fill="#413046" stroke="#413046"/>
<path d="M30.4312 31V60.9314H36.6801V31H30.4312ZM31.7395 59.6206V32.3142H35.3718V59.6206H31.7395Z" fill="#CBC56C"/>
<path d="M45.8484 31.0758V60.8833H52.0974V31.0758H45.8484ZM47.1567 59.576V32.3763H50.789V59.5554L47.1567 59.576Z" fill="#CBC56C"/>
<path d="M56.4669 33.6146C56.4751 32.7241 56.8095 31.8673 57.4068 31.2064C57.9952 31.8724 58.3176 32.7315 58.3125 33.6199C58.3074 34.5082 57.9752 35.3636 57.3793 36.0229C56.7911 35.3584 56.4666 34.5018 56.4669 33.6146Z" fill="#CBC56C"/>
<path d="M44.7987 51.2742L35.8022 60.1263L36.6286 60.952L44.7987 52.8155V51.2742Z" fill="#CBC56C"/>
<path d="M63.7383 37.702L58.9044 38.9405L66.8404 31.0586H65.1843L53.041 43.1137V44.7582L57.4721 40.3614L64.5749 38.5449L63.7383 37.702Z" fill="#CBC56C"/>
</svg>
